<svg xmlns="http://www.w3.org/2000/svg" xmlns:xlink="http://www.w3.org/1999/xlink" viewBox="0 0 789.82 272.3"><defs><linearGradient x1="238.94" y1="2373.82" x2="66.58" y2="2375.46" gradientTransform="rotate(-.57 -237950.094 -37.684)" gradientUnits="userSpaceOnUse"><stop offset="0" stop-color="#fff"></stop><stop offset=".24" stop-color="#c6deee"></stop><stop offset=".78" stop-color="#3a8cc3"></stop><stop offset="1" stop-color="#006bb2"></stop></linearGradient><linearGradient x1="239.15" y1="2397.11" x2="66.79" y2="2398.75" xlink:href="#linear-gradient"></linearGradient><linearGradient x1="239.35" y1="2420.64" x2="66.99" y2="2422.28" xlink:href="#linear-gradient"></linearGradient><linearGradient x1="239.56" y1="2443.89" x2="67.2" y2="2445.53" xlink:href="#linear-gradient"></linearGradient><linearGradient x1="239.76" y1="2467.33" x2="67.4" y2="2468.97" xlink:href="#linear-gradient"></linearGradient><linearGradient x1="239.96" y1="2490.53" x2="67.61" y2="2492.17" xlink:href="#linear-gradient"></linearGradient><linearGradient x1="240.17" y1="2513.92" x2="67.81" y2="2515.56" xlink:href="#linear-gradient"></linearGradient><linearGradient x1="240.37" y1="2537.05" x2="68.01" y2="2538.69" xlink:href="#linear-gradient"></linearGradient><linearGradient x1="240.57" y1="2560.18" x2="68.21" y2="2561.82" xlink:href="#linear-gradient"></linearGradient><linearGradient x1="240.78" y1="2583.52" x2="68.42" y2="2585.16" xlink:href="#linear-gradient"></linearGradient><linearGradient x1="239.11" y1="2392.63" x2="66.75" y2="2394.27" xlink:href="#linear-gradient"></linearGradient><linearGradient x1="239.3" y1="2413.79" x2="66.94" y2="2415.43" xlink:href="#linear-gradient"></linearGradient><linearGradient x1="239.49" y1="2435.77" x2="67.13" y2="2437.41" xlink:href="#linear-gradient"></linearGradient><linearGradient x1="239.67" y1="2456.85" x2="67.31" y2="2458.49" xlink:href="#linear-gradient"></linearGradient><linearGradient x1="239.86" y1="2478.78" x2="67.5" y2="2480.43" xlink:href="#linear-gradient"></linearGradient><linearGradient x1="240.05" y1="2500.72" x2="67.69" y2="2502.36" xlink:href="#linear-gradient"></linearGradient><linearGradient x1="240.25" y1="2522.81" x2="67.89" y2="2524.45" xlink:href="#linear-gradient"></linearGradient><linearGradient x1="240.44" y1="2544.68" x2="68.08" y2="2546.32" xlink:href="#linear-gradient"></linearGradient><linearGradient x1="240.63" y1="2566.54" x2="68.27" y2="2568.18" xlink:href="#linear-gradient"></linearGradient><linearGradient x1="239.23" y1="2406.29" x2="66.87" y2="2407.93" xlink:href="#linear-gradient"></linearGradient><linearGradient x1="239.41" y1="2427" x2="67.05" y2="2428.64" xlink:href="#linear-gradient"></linearGradient><linearGradient x1="239.59" y1="2447.66" x2="67.23" y2="2449.3" xlink:href="#linear-gradient"></linearGradient><linearGradient x1="239.77" y1="2468.31" x2="67.41" y2="2469.95" xlink:href="#linear-gradient"></linearGradient><linearGradient x1="239.95" y1="2488.96" x2="67.59" y2="2490.61" xlink:href="#linear-gradient"></linearGradient><linearGradient x1="240.13" y1="2509.63" x2="67.77" y2="2511.27" xlink:href="#linear-gradient"></linearGradient><linearGradient x1="240.31" y1="2530.01" x2="67.95" y2="2531.66" xlink:href="#linear-gradient"></linearGradient><linearGradient x1="240.49" y1="2550.63" x2="68.13" y2="2552.27" xlink:href="#linear-gradient"></linearGradient><linearGradient x1="239.34" y1="2419.05" x2="66.98" y2="2420.69" xlink:href="#linear-gradient"></linearGradient><linearGradient x1="239.52" y1="2439.75" x2="67.16" y2="2441.39" xlink:href="#linear-gradient"></linearGradient><linearGradient x1="239.69" y1="2459.34" x2="67.33" y2="2460.98" xlink:href="#linear-gradient"></linearGradient><linearGradient x1="239.87" y1="2478.93" x2="67.51" y2="2480.57" xlink:href="#linear-gradient"></linearGradient><linearGradient x1="240.04" y1="2498.52" x2="67.68" y2="2500.16" xlink:href="#linear-gradient"></linearGradient><linearGradient x1="240.21" y1="2518.31" x2="67.85" y2="2519.96" xlink:href="#linear-gradient"></linearGradient><linearGradient x1="240.38" y1="2537.85" x2="68.02" y2="2539.5" xlink:href="#linear-gradient"></linearGradient><linearGradient x1="239.46" y1="2432.63" x2="67.1" y2="2434.27" xlink:href="#linear-gradient"></linearGradient><linearGradient x1="239.63" y1="2452.07" x2="67.27" y2="2453.71" xlink:href="#linear-gradient"></linearGradient><linearGradient x1="239.79" y1="2470.17" x2="67.43" y2="2471.81" xlink:href="#linear-gradient"></linearGradient><linearGradient x1="239.95" y1="2488.49" x2="67.59" y2="2490.13" xlink:href="#linear-gradient"></linearGradient><linearGradient x1="240.11" y1="2506.8" x2="67.75" y2="2508.44" xlink:href="#linear-gradient"></linearGradient><linearGradient x1="240.27" y1="2524.84" x2="67.91" y2="2526.48" xlink:href="#linear-gradient"></linearGradient><linearGradient x1="239.56" y1="2444.31" x2="67.2" y2="2445.95" xlink:href="#linear-gradient"></linearGradient><linearGradient x1="239.73" y1="2462.68" x2="67.37" y2="2464.33" xlink:href="#linear-gradient"></linearGradient><linearGradient x1="239.87" y1="2479.72" x2="67.51" y2="2481.36" xlink:href="#linear-gradient"></linearGradient><linearGradient x1="240.02" y1="2496.97" x2="67.67" y2="2498.61" xlink:href="#linear-gradient"></linearGradient><linearGradient x1="240.17" y1="2513.95" x2="67.81" y2="2515.59" xlink:href="#linear-gradient"></linearGradient><linearGradient x1="239.66" y1="2454.91" x2="67.3" y2="2456.55" xlink:href="#linear-gradient"></linearGradient><linearGradient x1="239.81" y1="2472" x2="67.45" y2="2473.64" xlink:href="#linear-gradient"></linearGradient><linearGradient x1="239.95" y1="2488.2" x2="67.59" y2="2489.84" xlink:href="#linear-gradient"></linearGradient><linearGradient x1="240.09" y1="2504.12" x2="67.73" y2="2505.76" xlink:href="#linear-gradient"></linearGradient><linearGradient x1="239.87" y1="2480.38" x2="67.51" y2="2482.02" xlink:href="#linear-gradient"></linearGradient><linearGradient x1="239.81" y1="2473.05" x2="67.45" y2="2474.7" xlink:href="#linear-gradient"></linearGradient><linearGradient x1="239.94" y1="2488.43" x2="67.58" y2="2490.07" xlink:href="#linear-gradient"></linearGradient><linearGradient x1="239.74" y1="2464.42" x2="67.38" y2="2466.06" xlink:href="#linear-gradient"></linearGradient><linearGradient x1="239.88" y1="2480.87" x2="67.52" y2="2482.51" xlink:href="#linear-gradient"></linearGradient><linearGradient x1="240.01" y1="2496.37" x2="67.65" y2="2498.02" xlink:href="#linear-gradient"></linearGradient></defs><g data-name="Layer 2"><g data-name="Layer 1"><g data-name="Layer 1-2"><ellipse cx="10.44" cy="8.95" rx="8.52" ry="8.95"></ellipse><ellipse cx="14.91" cy="32.16" rx="8.52" ry="8.95"></ellipse><ellipse cx="20.24" cy="55.59" rx="8.52" ry="8.95"></ellipse><ellipse cx="22.37" cy="78.81" rx="8.52" ry="8.95"></ellipse><ellipse cx="23.22" cy="102.24" rx="8.52" ry="8.95"></ellipse><ellipse cx="22.37" cy="125.46" rx="8.52" ry="8.95"></ellipse><ellipse cx="20.45" cy="148.89" rx="8.52" ry="8.95"></ellipse><ellipse cx="16.4" cy="172.11" rx="8.52" ry="8.95"></ellipse><ellipse cx="12.57" cy="195.32" rx="8.52" ry="8.95"></ellipse><ellipse cx="8.52" cy="218.75" rx="8.52" ry="8.95"></ellipse><ellipse cx="36.42" cy="27.26" rx="8.09" ry="8.52"></ellipse><ellipse cx="40.47" cy="48.35" rx="8.09" ry="8.52"></ellipse><ellipse cx="42.39" cy="70.29" rx="8.09" ry="8.52"></ellipse><ellipse cx="42.39" cy="91.38" rx="8.09" ry="8.52"></ellipse><ellipse cx="42.6" cy="113.32" rx="8.09" ry="8.52"></ellipse><ellipse cx="42.6" cy="135.26" rx="8.09" ry="8.52"></ellipse><ellipse cx="39.62" cy="157.41" rx="8.09" ry="8.52"></ellipse><ellipse cx="36.64" cy="179.35" rx="8.09" ry="8.52"></ellipse><ellipse cx="32.8" cy="201.29" rx="8.09" ry="8.52"></ellipse><ellipse cx="59.64" cy="40.47" rx="7.67" ry="7.88"></ellipse><ellipse cx="62.62" cy="61.13" rx="7.67" ry="7.88"></ellipse><ellipse cx="62.62" cy="81.79" rx="7.67" ry="7.88"></ellipse><ellipse cx="62.62" cy="102.45" rx="7.67" ry="7.88"></ellipse><ellipse cx="62.62" cy="123.12" rx="7.67" ry="7.88"></ellipse><ellipse cx="62.62" cy="143.78" rx="7.67" ry="7.88"></ellipse><ellipse cx="59.85" cy="164.23" rx="7.67" ry="7.88"></ellipse><ellipse cx="57.72" cy="184.89" rx="7.67" ry="7.88"></ellipse><ellipse cx="80.94" cy="52.82" rx="7.24" ry="7.46"></ellipse><ellipse cx="82.86" cy="73.49" rx="7.24" ry="7.46"></ellipse><ellipse cx="82.86" cy="93.08" rx="7.24" ry="7.46"></ellipse><ellipse cx="82.86" cy="112.68" rx="7.24" ry="7.46"></ellipse><ellipse cx="82.86" cy="132.27" rx="7.24" ry="7.46"></ellipse><ellipse cx="82.86" cy="152.08" rx="7.24" ry="7.46"></ellipse><ellipse cx="79.88" cy="171.68" rx="7.24" ry="7.46"></ellipse><ellipse cx="100.11" cy="66.03" rx="6.6" ry="7.03"></ellipse><ellipse cx="103.09" cy="85.41" rx="6.6" ry="7.03"></ellipse><ellipse cx="103.09" cy="103.52" rx="6.6" ry="7.03"></ellipse><ellipse cx="103.09" cy="121.84" rx="6.6" ry="7.03"></ellipse><ellipse cx="103.09" cy="140.16" rx="6.6" ry="7.03"></ellipse><ellipse cx="100.11" cy="158.26" rx="6.6" ry="7.03"></ellipse><ellipse cx="120.13" cy="77.32" rx="6.18" ry="6.39"></ellipse><ellipse cx="123.12" cy="95.64" rx="6.18" ry="6.39"></ellipse><ellipse cx="123.12" cy="112.68" rx="6.18" ry="6.39"></ellipse><ellipse cx="123.33" cy="129.93" rx="6.18" ry="6.39"></ellipse><ellipse cx="120.35" cy="146.97" rx="6.18" ry="6.39"></ellipse><ellipse cx="139.52" cy="87.54" rx="5.75" ry="5.96"></ellipse><ellipse cx="142.5" cy="104.58" rx="5.75" ry="5.96"></ellipse><ellipse cx="143.35" cy="120.77" rx="5.75" ry="5.96"></ellipse><ellipse cx="140.37" cy="136.75" rx="5.75" ry="5.96"></ellipse><ellipse cx="189.79" cy="112.04" rx="4.26" ry="4.47"></ellipse><ellipse cx="174.45" cy="105.01" rx="4.69" ry="4.9"></ellipse><ellipse cx="176.58" cy="120.35" rx="4.69" ry="4.9"></ellipse><ellipse cx="157.62" cy="96.7" rx="5.33" ry="5.54"></ellipse><ellipse cx="160.6" cy="113.1" rx="5.33" ry="5.54"></ellipse><ellipse cx="158.69" cy="128.65" rx="5.33" ry="5.54"></ellipse><path class="colorLogo-56" d="M219 191.6l11.4-11.8c19.5 20.2 42.1 33 65 33 34.4 0 58.2-25 58.2-56.3v-.7c0-31-24.4-53.1-59.4-53.1-20.1 0-35.3 6.4-48.9 14.1l-12.4-8.3L239.12 0h121.6v16h-107.4l-5.2 83.8c13.9-7 27.9-12.2 48-12.2 41.8 0 74.3 27.5 74.3 67.5v.6c0 42.2-31.9 72-75.5 72-29.5.1-57-16.2-75.9-36.1M387.62 191.6l11.5-11.8c19.5 20.2 42.1 33 65 33 34.3 0 58.2-25 58.2-56.3v-.7c0-31-24.4-53.1-59.4-53.1-20.1 0-35.3 6.4-48.9 14.1l-12.4-8.3L407.82 0h121.6v16H422l-5.3 83.8c13.9-7 27.9-12.2 48-12.2 41.8 0 74.3 27.5 74.3 67.5v.6c0 42.2-31.9 72-75.5 72-29.5.1-57-16.2-75.9-36.1M577.33 69.4h15.2v155.1h-15.2zM641.32 69.3h14.4v34.5c12.9-20.3 31.9-38.2 61.5-38.2 36 0 72.6 30 72.6 80.3v.6c0 50.3-36.6 80.9-72.6 80.9-29.9 0-49.2-17.6-61.5-36.9v81.8h-14.4zm133 77.8v-.6c0-40.6-27.2-66.6-58.6-66.6-31 0-60.9 27-60.9 66.3v.6c0 39.7 29.9 66.3 60.9 66.3 32.5 0 58.6-24.5 58.6-66"></path><circle class="colorLogo-56" cx="584.93" cy="43.1" r="9.63"></circle></g></g></g></svg>