<svg width="212" height="29" viewBox="0 0 212 29" fill="none" xmlns="http://www.w3.org/2000/svg">
<path d="M49.9131 25.1182L49.1111 22.6228H41.7151L40.9132 25.1182H35.7704L43.2045 4.52454H47.6344L55.1577 25.1182H49.9131ZM45.4195 10.4102L42.8608 18.8796H47.9145L45.4195 10.4102Z" fill="black"/>
<path d="M85.5689 17.7327C85.3652 18.8292 84.9833 19.8627 84.4232 20.8205C83.8631 21.7783 83.1248 22.6228 82.2337 23.3411C81.3426 24.0595 80.2988 24.6267 79.1149 25.03C77.9311 25.4459 76.6199 25.6475 75.1942 25.6475C73.4248 25.6475 71.859 25.3577 70.4842 24.7653C69.1094 24.173 67.9383 23.3916 66.9835 22.3959C66.0161 21.4002 65.2905 20.2534 64.7813 18.9426C64.2721 17.6319 64.0175 16.2455 64.0175 14.7962C64.0175 13.3846 64.2594 12.0361 64.7558 10.7379C65.2523 9.4398 65.9652 8.29291 66.9072 7.29725C67.8492 6.3016 68.9948 5.49499 70.3442 4.90264C71.6935 4.31029 73.2211 4.00781 74.9269 4.00781C76.5308 4.00781 77.9693 4.23467 79.2168 4.68839C80.477 5.1421 81.5463 5.74706 82.4246 6.51585C83.3157 7.25944 84.0159 8.15427 84.525 9.20034C85.0342 10.2464 85.3779 11.3429 85.5307 12.5276H80.5025C80.3879 11.9226 80.1842 11.3555 79.8914 10.8514C79.5987 10.3472 79.2422 9.89351 78.7967 9.51542C78.3511 9.13732 77.8292 8.83484 77.2182 8.62059C76.6072 8.40633 75.9452 8.29291 75.2069 8.29291C74.2013 8.29291 73.2975 8.46935 72.521 8.83484C71.7317 9.20034 71.0825 9.67926 70.5478 10.2716C70.0132 10.8766 69.6058 11.5571 69.3258 12.3511C69.0457 13.1325 68.9057 13.9517 68.9057 14.7962C68.9057 15.7036 69.0457 16.548 69.3385 17.342C69.6313 18.136 70.0514 18.8292 70.6115 19.4341C71.1716 20.0391 71.859 20.5054 72.661 20.8457C73.4629 21.186 74.3922 21.3624 75.436 21.3624C76.0343 21.3624 76.5945 21.2742 77.1291 21.0852C77.6637 20.8961 78.1602 20.6441 78.6057 20.3164C79.0513 19.9887 79.4332 19.6106 79.7514 19.1695C80.0697 18.7284 80.2988 18.2494 80.4388 17.7453H85.5689V17.7327Z" fill="black"/>
<path d="M118.386 14.8214C118.386 15.8548 118.246 16.8631 117.966 17.8335C117.686 18.804 117.291 19.7114 116.782 20.5684C116.26 21.4255 115.636 22.1817 114.885 22.8622C114.134 23.5428 113.269 24.0847 112.301 24.5006L114.083 26.8827L109.857 29L107.362 25.6475C105.644 25.6475 104.091 25.3451 102.728 24.7527C101.366 24.1604 100.208 23.3538 99.266 22.3581C98.324 21.3624 97.6111 20.2029 97.1147 18.9048C96.6182 17.5941 96.3764 16.2455 96.3764 14.834C96.3764 13.4224 96.6182 12.0613 97.1147 10.7631C97.6111 9.46501 98.3367 8.30551 99.2787 7.30986C100.233 6.3142 101.392 5.5076 102.754 4.91524C104.116 4.32289 105.669 4.02042 107.387 4.02042C109.106 4.02042 110.646 4.32289 112.008 4.91524C113.37 5.5202 114.516 6.3142 115.471 7.30986C116.426 8.30551 117.138 9.46501 117.635 10.7631C118.131 12.0487 118.386 13.4098 118.386 14.8214ZM107.387 21.3498C108.342 21.3498 109.195 21.1734 109.946 20.8079C110.697 20.4424 111.334 19.9635 111.868 19.3459C112.39 18.741 112.798 18.0478 113.078 17.2538C113.358 16.4724 113.498 15.6532 113.498 14.8088C113.498 13.9644 113.358 13.1451 113.078 12.3637C112.798 11.5823 112.403 10.8892 111.868 10.2716C111.346 9.66666 110.71 9.17513 109.946 8.80964C109.195 8.44415 108.342 8.2677 107.387 8.2677C106.433 8.2677 105.58 8.44415 104.829 8.80964C104.078 9.17513 103.441 9.65406 102.907 10.2716C102.385 10.8766 101.977 11.5823 101.697 12.3637C101.417 13.1451 101.277 13.9644 101.277 14.8088C101.277 15.6532 101.417 16.4724 101.697 17.2538C101.977 18.0352 102.372 18.741 102.907 19.3459C103.429 19.9509 104.065 20.4424 104.829 20.8079C105.58 21.1734 106.433 21.3498 107.387 21.3498Z" fill="black"/>
<path d="M129.906 4.52454H134.718V18.0604C134.718 18.5267 134.795 18.9804 134.96 19.3963C135.113 19.8122 135.342 20.1903 135.635 20.5054C135.927 20.8205 136.258 21.0726 136.666 21.2616C137.06 21.4507 137.506 21.5389 138.002 21.5389C138.499 21.5389 138.944 21.4507 139.352 21.2616C139.759 21.0726 140.103 20.8205 140.396 20.5054C140.688 20.1903 140.905 19.8248 141.07 19.3963C141.223 18.9804 141.312 18.5267 141.312 18.0604V4.52454H146.124V18.0856C146.124 19.1443 145.933 20.1399 145.564 21.06C145.195 21.98 144.647 22.7866 143.947 23.4546C143.247 24.1351 142.394 24.6645 141.389 25.0552C140.383 25.4459 139.263 25.6475 138.015 25.6475C136.768 25.6475 135.647 25.4459 134.655 25.0552C133.662 24.6645 132.821 24.1225 132.109 23.4546C131.408 22.774 130.861 21.98 130.492 21.06C130.11 20.1399 129.932 19.1443 129.932 18.0856V4.52454H129.906Z" fill="black"/>
<path d="M179.183 17.7327C178.979 18.8292 178.597 19.8627 178.037 20.8205C177.477 21.7783 176.739 22.6228 175.848 23.3411C174.957 24.0595 173.913 24.6267 172.729 25.03C171.545 25.4459 170.234 25.6475 168.808 25.6475C167.039 25.6475 165.473 25.3577 164.098 24.7653C162.723 24.173 161.552 23.3916 160.598 22.3959C159.63 21.4002 158.905 20.2534 158.395 18.9426C157.886 17.6319 157.632 16.2455 157.632 14.7962C157.632 13.3846 157.873 12.0361 158.37 10.7379C158.866 9.4398 159.579 8.29291 160.521 7.29725C161.463 6.3016 162.609 5.49499 163.958 4.90264C165.308 4.31029 166.835 4.00781 168.541 4.00781C170.145 4.00781 171.583 4.23467 172.831 4.68839C174.091 5.1421 175.16 5.74706 176.039 6.51585C176.917 7.28465 177.617 8.17948 178.139 9.22554C178.648 10.2716 178.992 11.3681 179.145 12.5528H174.116C174.002 11.9478 173.798 11.3807 173.505 10.8766C173.213 10.3724 172.856 9.91872 172.411 9.54062C171.965 9.16253 171.443 8.86005 170.832 8.6458C170.221 8.43154 169.559 8.31811 168.821 8.31811C167.815 8.31811 166.911 8.49456 166.135 8.86005C165.346 9.22554 164.697 9.70446 164.162 10.2968C163.627 10.9018 163.22 11.5823 162.94 12.3763C162.66 13.1577 162.52 13.977 162.52 14.8214C162.52 15.7288 162.66 16.5732 162.953 17.3672C163.245 18.1612 163.665 18.8544 164.226 19.4594C164.786 20.0643 165.473 20.5306 166.275 20.8709C167.077 21.2112 168.006 21.3876 169.05 21.3876C169.648 21.3876 170.208 21.2994 170.743 21.1104C171.278 20.9213 171.774 20.6693 172.22 20.3416C172.665 20.0139 173.047 19.6358 173.365 19.1947C173.684 18.7536 173.913 18.2747 174.053 17.7705H179.183V17.7327Z" fill="black"/>
<path d="M201.002 25.6475C199.283 25.6475 197.73 25.3451 196.368 24.7527C195.006 24.1603 193.847 23.3537 192.893 22.3581C191.938 21.3624 191.212 20.2029 190.729 18.9048C190.232 17.5941 189.99 16.2455 189.99 14.834C189.99 13.4224 190.232 12.0613 190.729 10.7631C191.225 9.465 191.951 8.30551 192.893 7.30985C193.835 6.3142 195.006 5.5076 196.368 4.91524C197.73 4.32289 199.283 4.02042 201.002 4.02042C202.72 4.02042 204.26 4.32289 205.622 4.91524C206.984 5.5202 208.13 6.3142 209.085 7.30985C210.04 8.30551 210.752 9.465 211.249 10.7631C211.745 12.0739 211.987 13.4224 211.987 14.834C211.987 16.2455 211.745 17.6067 211.249 18.9048C210.752 20.2155 210.027 21.3624 209.085 22.3581C208.13 23.3537 206.984 24.1603 205.622 24.7527C204.26 25.3451 202.72 25.6475 201.002 25.6475ZM201.002 21.3498C201.956 21.3498 202.809 21.1734 203.56 20.8079C204.311 20.4424 204.948 19.9635 205.482 19.3459C206.004 18.741 206.412 18.0478 206.692 17.2538C206.972 16.4724 207.112 15.6532 207.112 14.8088C207.112 13.9643 206.972 13.1451 206.692 12.3637C206.412 11.5823 206.017 10.8892 205.482 10.2716C204.96 9.66665 204.324 9.17513 203.56 8.80964C202.809 8.44414 201.956 8.2677 201.002 8.2677C200.047 8.2677 199.194 8.44414 198.443 8.80964C197.692 9.17513 197.055 9.65405 196.521 10.2716C195.999 10.8766 195.591 11.5823 195.311 12.3637C195.031 13.1451 194.891 13.9643 194.891 14.8088C194.891 15.6532 195.031 16.4724 195.311 17.2538C195.591 18.0352 195.986 18.741 196.521 19.3459C197.043 19.9509 197.679 20.4424 198.443 20.8079C199.194 21.1734 200.047 21.3498 201.002 21.3498Z" fill="black"/>
<path d="M26.9233 5.8983L9.35631 26.9583L0 12.3133L3.58977 11.9731L26.9233 5.8983Z" fill="url(#paint0_linear)"/>
<path d="M1.79491 0L26.9233 5.8983L3.58979 11.9731L1.79491 0Z" fill="url(#paint1_linear)"/>
<path d="M0 12.3133L2.95328 7.68796L3.58977 11.9731L0 12.3133Z" fill="#C85128"/>
<defs>
<linearGradient id="paint0_linear" x1="0" y1="16.4237" x2="26.9234" y2="16.4237" gradientUnits="userSpaceOnUse">
<stop stop-color="#D7733A"/>
<stop offset="0.1303" stop-color="#DF7F37"/>
<stop offset="0.4473" stop-color="#EE9632"/>
<stop offset="0.7446" stop-color="#F7A42F"/>
<stop offset="1" stop-color="#FAA92E"/>
</linearGradient>
<linearGradient id="paint1_linear" x1="1.79696" y1="5.98368" x2="26.9234" y2="5.98368" gradientUnits="userSpaceOnUse">
<stop stop-color="#EC5635"/>
<stop offset="0.0875451" stop-color="#EC5635"/>
<stop offset="0.7439" stop-color="#EC5635"/>
<stop offset="0.8478" stop-color="#D84B36"/>
<stop offset="1" stop-color="#EC5635"/>
</linearGradient>
</defs>
</svg>
