<svg xmlns="http://www.w3.org/2000/svg" width="102" height="23" viewBox="0 0 102 23"><path fill="#464a52" d="M26.427 11.389a6.251 6.251 0 0 1 1.57-4.139 5.802 5.802 0 0 1 1.88-1.384c.744-.351 1.584-.53 2.527-.53 1.116 0 2.08.248 2.9.737.812.489 1.419 1.13 1.818 1.914l-1.811 1.247a3.04 3.04 0 0 0-.579-.861 2.932 2.932 0 0 0-.737-.558 3.249 3.249 0 0 0-.82-.296 3.933 3.933 0 0 0-.84-.096c-.592 0-1.108.117-1.549.358-.44.24-.806.55-1.095.93-.29.378-.51.812-.661 1.3a4.79 4.79 0 0 0-.22 1.447 4.7 4.7 0 0 0 .254 1.55c.173.495.414.929.723 1.308.317.378.69.674 1.13.909.44.227.923.344 1.446.344.276 0 .558-.034.854-.103.296-.07.579-.18.847-.324a3.25 3.25 0 0 0 .744-.572 2.56 2.56 0 0 0 .544-.847l1.928 1.11a3.62 3.62 0 0 1-.826 1.204c-.358.345-.764.64-1.212.882-.448.24-.93.42-1.446.544a6.352 6.352 0 0 1-1.502.186c-.867 0-1.66-.18-2.376-.544a6.2 6.2 0 0 1-1.852-1.426 6.632 6.632 0 0 1-1.212-1.997 6.526 6.526 0 0 1-.427-2.293zm25.192 4.089v2.067h-8.437V5.405h8.278v2.067h-5.92V10.4h5.114v1.916H45.54v3.162zM58.05 5.405h5.365c.558 0 1.074.117 1.55.351.475.235.881.545 1.219.924.344.378.612.813.805 1.302a4.03 4.03 0 0 1-.303 3.603 3.37 3.37 0 0 1-1.598 1.392l2.769 4.568h-2.651l-2.48-4.072H60.4v4.072h-2.35zm2.355 5.998h2.95c.214 0 .42-.048.606-.152.185-.103.35-.24.488-.42a2 2 0 0 0 .323-.626c.083-.241.117-.496.117-.772a2.24 2.24 0 0 0-.138-.785 2.084 2.084 0 0 0-.364-.626 1.604 1.604 0 0 0-.53-.414 1.37 1.37 0 0 0-.605-.144h-2.847zm22.5-3.925h-3.88v10.067h-2.343V7.478h-3.887V5.412h10.11zm8.34-2.073h2.087l4.614 12.14h-2.424l-1.13-3.025H90.15l-1.109 3.025h-2.424zm2.72 7.45L92.293 8.09l-1.743 4.766z"/><path fill="#138cd6" d="M11.56 9.145a2.338 2.338 0 1 1 0 4.676 2.338 2.338 0 1 1 0-4.676zm-.42-6.831A2.857 2.857 0 0 1 14.729.13a2.856 2.856 0 0 1-1.576 5.488c-.049-.014-.104-.034-.152-.048-1.674-.44-3.14-.193-4.332.468A6.225 6.225 0 0 0 5.472 11.1v.028a6.265 6.265 0 0 0 1.936 4.882 6.304 6.304 0 0 0 1.79 1.192c1.089.461 2.37.585 3.802.206.048-.02.103-.034.152-.048a2.86 2.86 0 0 1 3.532 1.956 2.86 2.86 0 0 1-1.955 3.533 2.86 2.86 0 0 1-3.588-2.183c-.854-2.659-2.128-2.727-3.733-4.077-1.522-1.28-2.128-2.114-4.435-2.21h-.09c-.055 0-.165 0-.213-.007-3.533-.248-3.533-5.53 0-5.771.048-.007.165-.007.213-.007h.09C5.342 8.498 5.9 7.63 7.456 6.342c1.674-1.377 2.879-1.508 3.685-4.028zm8.75 6.321a2.847 2.847 0 0 1 2.848 2.844 2.847 2.847 0 0 1-2.848 2.844 2.847 2.847 0 0 1-2.847-2.844 2.847 2.847 0 0 1 2.847-2.844z"/><g><path fill="#464a52" d="M100.466 16.61h-.45v1.12h-.214v-1.12h-.449v-.181h1.113v.181zM101.778 17.724v-.932l-.403.707h-.117l-.403-.707v.932h-.215V16.43h.228l.448.794.45-.794h.227v1.301h-.215z"/></g></svg>