<?xml version="1.0" encoding="utf-8"?>
<!-- Generator: Adobe Illustrator 16.0.0, SVG Export Plug-In . SVG Version: 6.00 Build 0)  -->
<!DOCTYPE svg PUBLIC "-//W3C//DTD SVG 1.1//EN" "http://www.w3.org/Graphics/SVG/1.1/DTD/svg11.dtd">
<svg version="1.1" id="Blue_1" xmlns="http://www.w3.org/2000/svg" xmlns:xlink="http://www.w3.org/1999/xlink" x="0px" y="0px"
	 width="36px" height="36px" viewBox="0 0 36 36" enable-background="new 0 0 36 36" xml:space="preserve">
<g>
	<circle fill="#FF9901" cx="17.975" cy="17.99" r="17.855"/>
</g>
<path fill="#4E84BC" d="M0.214,17.692c-0.001,0.1-0.007,0.197-0.007,0.298c0,9.86,7.994,17.854,17.855,17.854
	c9.86,0,17.855-7.994,17.855-17.854c0-0.101-0.007-0.198-0.007-0.298H0.214z"/>
<path fill="#2F6DAD" d="M1.148,23.704c2.384,7.056,9.052,12.141,16.914,12.141c7.861,0,14.531-5.085,16.913-12.141H1.148z"/>
<path fill="#0D58A6" d="M4.609,29.714c3.271,3.755,8.083,6.131,13.454,6.131c5.37,0,10.181-2.376,13.453-6.131H4.609z"/>
</svg>
