<svg xmlns="http://www.w3.org/2000/svg" viewBox="0 0 956.68 228.2"><defs><style>.cls-1{fill:#fff;}</style></defs><title>Farther--Logo--Vector</title><g id="Layer_2" data-name="Layer 2"><g id="Text"><path class="cls-1" d="M164.63,210.6H53.2a114.16,114.16,0,0,0,121.8,0Z"/><path class="cls-1" d="M228.2,114.1a114.1,114.1,0,1,0-226,22.17H226A114,114,0,0,0,228.2,114.1Z"/><path class="cls-1" d="M223.37,146.7H4.75a106.36,106.36,0,0,0,8.91,21.52H214.55C218.45,161.41,221,154.2,223.37,146.7Z"/><path class="cls-1" d="M201.81,178.65H20a114.48,114.48,0,0,0,19.23,21.52H189a114.48,114.48,0,0,0,19.23-21.52Z"/><path class="cls-1" d="M374,53.35c0,5.48-3.72,9.2-9.64,9.2-4.82,0-7.67-3.29-11.61-8.33-4.38-5.69-7.88-7.66-11.61-7.66-8.54,0-15.11,7.88-15.11,19.49V91.69H352.1v11.24H326v61c0,15.33,6.13,18.39,22.78,18.39v7.89H289.67v-7.89c12.27,0,18-5.25,18-16.64v-62.8h-18V91.69h4.6c9.86,0,12.71-1.1,12.71-9a54.12,54.12,0,0,1,2.19-15.33c4.82-17.75,18.4-30.23,40.09-30.23C363.49,37.14,374,43.71,374,53.35Z"/><path class="cls-1" d="M447.45,112.28v56.95c0,4.6,2,7.67,5.48,7.67,2.63,0,4.38-.88,6.79-2.41l2,7.88c-6.35,7.23-11.61,10.3-17.74,10.3-8.54,0-13.8-5.91-14.9-15.77-12.48,11.39-21.68,15.77-32.42,15.77-14,0-24.53-9.64-24.53-23.44,0-15.11,12.48-22.78,31.1-29.35l25.85-9V115.56c0-10.51-10.29-16.87-20.15-16.87C400.36,98.69,392,104,392,109c0,3.51,5.26,9.2,5.26,12.27,0,1.31-.44,2-2.85,3.07l-9.64,4.59a11.08,11.08,0,0,1-2.63,1.1c-1.31,0-7-10.08-7-15.34,0-10.29,12.26-25.41,40.3-25.41C436.94,89.27,447.45,96.72,447.45,112.28ZM406.93,178c7.88,0,14.67-3.5,22.12-11.39V139.22l-13.58,5c-17.52,6.57-23.88,11.39-23.88,19.28C391.59,172.08,397.51,178,406.93,178Z"/><path class="cls-1" d="M506.78,91.69h5.48V111h.44c9-14.89,14.46-20.81,26.72-20.81,9.2,0,16.21,7.67,16.21,12.49,0,2.84-2.85,14.24-9,14.24-7.45,0-9.2-10.3-16.43-10.3-5.47,0-9.42,3.94-18,16.21v39.65c0,16.87,4.82,19.72,22.34,19.93v7.89h-57v-7.89c10.73,0,16.21-6.57,16.21-16.21v-49.5l-16.21-8.11v-5.62Z"/><path class="cls-1" d="M604,74.16V91.69h29.8v11H604V167c0,9.86,3.24,13.78,15.29,13.78a120.43,120.43,0,0,0,15.6-1.15V189c-10.3,1.75-19.06,3.72-28.7,3.72-14.89,0-20.59-6.57-20.59-18.62V102.64H569.14V96.72c8.55-3.06,16.65-8.76,27.38-22.56Z"/><path class="cls-1" d="M677.89,38h5.47v69.73c12.49-11.39,22.79-16.42,36.15-16.42,19.06,0,30.23,11.82,30.23,30.88v44c0,9.42,5.26,16.21,16,16.21v7.89H714.91v-7.89c10.51,0,16.43-6.13,16.43-15.11V126.8c0-11.61-7.67-20.81-21.25-20.81-9.42,0-18.62,3.73-26.73,10.08V164c0,12,4.17,18.39,17.53,18.39v7.89H648.53v-7.89c11.18,0,16.43-6.35,16.43-17.08v-103l-16.43-9.2v-5Z"/><path class="cls-1" d="M861.44,132H791.56v.44c0,25.85,16.43,42.71,38.11,42.71,10.3,0,19.06-3.28,27.17-10.51l4.6,4.16c-9.42,15.34-23.88,23.88-40.75,23.88-25.85,0-45.56-20.59-45.56-50.6,0-29.79,19.71-50.38,46.22-50.38C845.66,91.69,861,112.06,861.44,132ZM840.88,121.7c-1.87-15.56-9.25-21.91-22.6-21.91-12.88,0-23.54,6.13-26.12,21.91Z"/><path class="cls-1" d="M907.83,91.69h5.47V111h.44c9-14.89,14.46-20.81,26.73-20.81,9.2,0,16.21,7.67,16.21,12.49,0,2.84-2.85,14.24-9,14.24-7.45,0-9.2-10.3-16.43-10.3-5.48,0-9.42,3.94-18,16.21v39.65c0,16.87,4.82,19.72,22.35,19.93v7.89h-57v-7.89c10.74,0,16.21-6.57,16.21-16.21v-49.5l-16.21-8.11v-5.62Z"/></g></g></svg>