<svg width="484" height="103" viewBox="0 0 484 103" fill="none" xmlns="http://www.w3.org/2000/svg">
<path d="M226.335 3.46887H170.264V78.1839H245.889V40.8264H226.335V3.46887Z" fill="white"/>
<path d="M309.414 3.46887H253.344V78.1839H309.414V3.46887Z" fill="white"/>
<path d="M400.164 3.46887H317.085L358.571 78.1839L400.164 3.46887Z" fill="white"/>
<path d="M481.839 47.2305H465.958V55.7694H481.839V78.1839H408.915V3.46887H481.839V25.8834H465.958V34.4222H481.839V47.2305Z" fill="white"/>
<path d="M150.553 79.7817C158.247 79.7817 164.484 73.6193 164.484 66.0177C164.484 58.416 158.247 52.2537 150.553 52.2537C142.859 52.2537 136.621 58.416 136.621 66.0177C136.621 73.6193 142.859 79.7817 150.553 79.7817Z" fill="white"/>
<path d="M247.942 38.9116V80.0049H168.536V1.55408H228.387V38.9116H247.942ZM172.317 5.28983V76.2691H244.161V42.6473H224.606V5.28983H172.317Z" fill="white"/>
<path d="M311.467 80.0049H251.615V1.55408H311.467V80.0049ZM307.686 5.28983H255.396V76.2691H307.686V5.28983Z" fill="white"/>
<path d="M358.731 82.0168L314.053 1.55408H403.524L358.731 82.0168ZM397.129 5.28983H320.44L358.735 74.2572L397.129 5.28983Z" fill="white"/>
<path d="M483.892 53.8546V80.0049H407.187V1.55408H483.892V27.7043H468.011V32.5074H483.892V49.0515H468.011V53.8546H483.892ZM480.111 5.28983H410.968V76.2691H480.111V57.5903H464.229V45.3157H480.111V36.2432H464.229V23.9686H480.111V5.28983Z" fill="white"/>
<path d="M403.524 22.3676L358.731 102.83L314.053 22.3676H329.932L332.002 26.1033H385.543L387.624 22.3676H403.524ZM397.129 26.1033H320.44L358.735 95.0707L397.129 26.1033Z" fill="white"/>
<path d="M90.75 1.5541H132.344V80.9883L94.5313 64.7111V80.0049H52.9375V0.266846L90.75 20.7601V1.5541ZM128.563 5.28985H94.5313V27.0704L56.7188 6.57711V76.2691H90.75V59.0085L128.563 75.2857V5.28985Z" fill="white"/>
<path d="M48.0759 80.0049H0V1.55408H48.0759V80.0049ZM44.2946 5.28983H3.78125V76.2691H44.2946V5.28983Z" fill="white"/>
</svg>
