<?xml version="1.0" encoding="UTF-8"?> <svg xmlns="http://www.w3.org/2000/svg" xmlns:xlink="http://www.w3.org/1999/xlink" width="227px" height="54px" viewBox="0 0 227 54"><!-- Generator: Sketch 60.1 (88133) - https://sketch.com --><title>logo-docsend</title><desc>Created with Sketch.</desc><g id="Logo" stroke="none" stroke-width="1" fill="none" fill-rule="evenodd"><g fill-rule="nonzero"><path d="M223.066,11.119 L223.066,35.612 C223.066,37.242 223.152,37.995 223.665,39.249 L225.845,39.082 L225.93,39.75 L218.449,41.255 L217.252,37.201 L211.737,41.506 C207.077,41.506 203.487,37.451 203.487,31.976 C203.487,26.374 206.095,21.776 212.807,20.439 C214.431,20.439 215.841,20.773 217.124,21.567 L217.124,12.791 L214.901,13.083 L214.815,12.331 L222.382,11.119 L223.066,11.119 Z M80.947,12 C90.397,12 95.577,17.262 95.577,25.837 C95.577,34.372 91.002,40.337 80.817,41 L66.705,41 L66.705,40.337 L69.597,40.006 L69.597,12.994 L66.705,12.663 L66.705,12 L80.947,12 Z M108.284,20 C113.58,20 117.48,24.041 117.48,29.958 C117.48,36.834 112.717,39.584 106.723,41 C101.51,41 97.568,36.959 97.568,31 C97.568,24.125 102.372,21.458 108.284,20 Z M131.607,20 C133.677,20 136.274,21 138.036,22.25 L138.036,26.833 L133.06,26.833 L131.563,21.25 C131.214446,21.1048952 130.839468,21.0340546 130.462,21.042 C128.305,21.042 125.971,22.834 125.971,27.834 C125.971,32.958 128.965,36.709 133.368,36.709 C135.262,36.709 136.494,36.291 138.168,35.292 L138.388,35.666 C135.746,38.125 133.808,39.5 130.682,41 C124.87,41 120.467,37.292 120.467,31.417 C120.467,24.75 125.795,21 131.607,20 Z M149.244,11 C152.584,11 154.274,11.367 157.173,12.47 L157.173,19.91 L156.529,19.91 L153.953,13.983 C152.705,12.675 151.216,11.899 149.365,11.899 C146.708,11.899 144.776,13.452 144.776,16.109 C144.776,18.357 146.186,19.665 148.439,21.095 L153.631,24.61 C156.891,26.695 158.3,28.698 158.3,31.927 C158.3,36.054 155.483,39.242 147.835,41 C144.535,41 142.121,40.223 139.383,38.507 L139.383,30.904 L140.027,30.904 L142.201,36.177 C143.811,38.098 145.783,39.774 148.399,39.774 C151.337,39.774 153.309,37.975 153.309,35.196 C153.309,32.948 152.263,31.395 149.405,29.597 L144.092,26 C141.356,24.16 139.504,22.484 139.504,19.133 C139.504,15.291 142.121,12.267 149.244,11 Z M171.49,20 C175.791,20 179.164,22.5 179.164,27.5 L179.164,29.084 L166.556,29.084 C167.021,33.584 169.761,36.5 173.893,36.5 C175.791,36.5 177.225,35.917 178.827,35 L179.207,35.5 C176.507,38.167 174.484,39.541 171.279,41 C165.84,41 161.286,37.459 161.286,31.417 C161.286,24.959 165.966,21.084 171.49,20 Z M195.369,20 C199.712,20 200.582,21.933 200.582,26.27 L200.582,39.97 L203.102,40.313 L203.102,41 L192.63,41 L192.63,40.313 L194.28,39.97 L194.28,26.056 C194.28,24.209 193.586,23.436 192.283,23.436 C190.98,23.436 190.154,23.994 188.894,24.724 L187.678,25.454 L187.678,39.97 L189.328,40.313 L189.328,41 L179.337,41 L179.337,40.313 L179.338,40.313 L181.64,39.97 L181.64,22.19 L179.294,22.577 L179.207,21.847 L186.983,20.215 L187.679,20.215 L187.679,24.681 L195.369,20 Z M79.566,12.663 L76.286,12.994 L76.286,40.006 L79.824,40.337 C85.09,40.337 88.456,34.496 88.456,26.003 C88.456,18.338 85.866,12.663 79.566,12.663 Z M107.052,21.167 C104.917,21.167 103.686,23.667 103.686,29.333 C103.686,36.167 105.574,39.875 107.956,39.875 C110.131,39.875 111.363,37.292 111.363,31.792 C111.363,24.625 109.392,21.167 107.052,21.167 Z M214.773,21.6938457 C211.523,21.736 210.028,24.955 210.028,29.845 C210.028,34.527 211.438,37.87 214.003,37.87 C214.943,37.87 215.371,37.662 216.525,36.91 L216.525,36.908 L217.125,36.49 L217.125,22.74 C216.529815,22.0667099 215.671601,21.6850384 214.773,21.6938457 Z M169.972,21.25 C167.696,21.25 166.515,23.333 166.515,27.792 L166.515,28.417 L173.008,28.417 L173.008,26.667 C173.008,23.209 172.333,21.25 169.972,21.25 Z" id="Combined-Shape" fill="#191A1B"></path><path d="M23.85,44.518 L8.483,29.15 L23.852,29.15 L23.852,44.518 L23.85,44.518 Z M28.82,24.181 L0,24.181 L0,27.694 L25.306,53 L26.336,53 C27.173,53 28.001,52.957 28.819,52.88 L28.819,24.18 L28.82,24.181 Z" id="Shape" fill="#53EFCE"></path><path d="M28.81,47.887 L28.81,52.886 C42.167,51.626 52.655,40.353 52.655,26.671 C52.655,25.831 52.612,25.001 52.535,24.181 L47.537,24.181 C47.632,24.998 47.687,25.828 47.687,26.671 C47.687,37.61 39.422,46.649 28.81,47.887 L28.81,47.887 Z" id="Path" fill="#191A1B"></path><path d="M26.335,0.399 L0,0.399 L0,24.249 L4.969,24.249 L4.969,5.367 L26.335,5.367 C37.276,5.367 46.317,13.635 47.553,24.249 L52.55,24.249 C51.293,10.89 40.018,0.4 26.335,0.4" id="Path" fill="#6D31FF"></path></g></g></svg> 