<svg height="46" viewBox="0 0 91 46" width="91" xmlns="http://www.w3.org/2000/svg"><g fill="#6f53a7"><g transform="translate(38.54 19.271)"><path d="m.12432432.55945946c4.04054054-.06216216 8.08108109-.12432432 12.18378378-.18648649 0 .06216217-.0621622.06216217-.0621622.12432433-.8702702 1.24324324-1.8027027 2.48648648-2.67297293 3.72972973-.06216216.06216216-.12432432.12432432-.18648648.12432432-2.17567568 0-4.28918919 0-6.40270271 0-.12432432 0-.18648648-.06216216-.24864864-.12432432-.80810811-1.18108108-1.74054054-2.3-2.61081082-3.66756757.06216217.12432432.06216217.06216216 0 0z" transform="translate(.622)"/><path d="m3.60540541 4.53783784c-.18648649 0-.24864865-.06216216-.37297298-.18648649-.62162162-.93243243-1.24324324-1.86486486-2.05135135-2.7972973l-.55945946-.74594594-.06216216-.06216216-.18648649-.31081081 12.68108113-.18648649-.1864865.31081081-.0621622.06216216-.5594595.80810811c-.6837837.93243243-1.3675675 1.98918919-2.1135135 2.92162162-.0621621.12432433-.18648645.18648649-.31081078.18648649-1.92702703 0-4.04054054 0-6.21621621 0zm-2.54864865-3.79189189.43513513.62162162c.62162162.93243243 1.24324325 1.86486486 2.05135135 2.79729729.06216217.06216217.06216217.06216217.12432433.06216217h6.40270273.0621621c.6837838-.93243244 1.3675676-1.98918919 2.1135135-2.92162162l.4351352-.68378379z"/></g><g transform="translate(38.54 16.162)"><path d="m12.9918919.37297297c0 .80810811 0 1.74054054.0621622 2.54864865-4.22702707 0-8.32972978 0-12.49459464 0 0-.06216216-.06216216-2.23783784-.06216216-2.42432432 4.1027027 0 8.26756756-.06216216 12.4945946-.12432433z"/><path d="m.37297297 3.10810811-.06216216-.12432433c-.06216216-.12432432-.06216216-2.48648648-.06216216-2.48648648v-.12432433l12.80540545-.18648648.0621621 2.85945946zm.24864865-2.42432433c0 .43513514 0 1.74054054.06216216 2.17567568h12.24594592v-2.23783784z"/></g><g transform="translate(39.162 11.19)"><path d="m10.0081081 1.86486486c0 .93243244 0 1.86486487.0621622 2.7972973-.12432435.06216216-1.18108111.06216216-1.3675676 0 0-.80810811 0-1.61621621-.06216216-2.42432432-.06216216 0-.06216216 0-.12432432.06216216-2.3.62162162-4.66216217 1.24324324-6.96216217 1.98918919-.12432432.06216216-.31081081.06216216-.43513513 0-.37297297-.06216216-.55945946-.37297297-.55945946-.68378378 0-.31081082.24864865-.62162163.4972973-.74594595.49729729-.18648649 1.05675675-.31081081 1.55405405-.43513514 2.61081081-.68378378 5.15945946-1.49189189 7.77027029-2.17567567.1864865-.06216216.372973-.06216216.4972973 0 .372973.12432432.4972973.43513513.4972973.74594595 0 .31081081-.2486487.62162162-.4972973.74594594-.3108108.06216216-.4972973.18648649-.8081081.24864865 0-.12432433 0-.12432433-.0621622-.12432433z"/><path d="m9.07567568 4.91081081c-.24864865 0-.43513514 0-.43513514 0h-.12432432l-.06216217-2.36216216-.43513513.12432432c-2.17567568.55945946-4.35135135 1.18108108-6.4027027 1.86486487-.18648649.06216216-.37297298.06216216-.4972973 0-.43513514-.12432433-.68378378-.43513514-.68378378-.87027027 0-.43513514.24864864-.80810811.62162162-.93243243.37297297-.12432433.74594594-.24864865 1.11891892-.31081082l2.05135135-.49729729c2.11351351-.55945946 4.16486486-1.18108108 6.21621617-1.74054054.1864865-.06216217.372973-.12432433.5594595 0 .4351351.12432432.6216216.43513513.6216216.87027027 0 .43513513-.3108108.74594594-.6216216.87027027-.1864865.06216216-.372973.12432432-.4972973.18648648l-.3108108.06216217s0 0-.0621622 0l.0621622 2.79729729-.1243243.06216217c-.0621622-.18648649-.55945949-.12432433-.99459462-.12432433zm-.31081082-.37297297h1.05675676l-.06216216-2.7972973.18648649-.06216216c.06216215 0 .06216215 0 .12432435-.06216216l.3108108-.06216217c.1864865-.06216216.372973-.12432432.4972973-.18648648.2486486-.06216216.4351351-.31081081.4351351-.55945946 0-.31081081-.1864865-.4972973-.4351351-.55945946-.1243243-.06216216-.2486487-.06216216-.4351352 0-2.11351347.55945946-4.16486482 1.18108108-6.21621617 1.74054054l-2.05135135.4972973c-.37297298.12432432-.74594595.24864865-1.11891892.31081081-.31081081.06216216-.43513514.37297297-.43513514.55945946 0 .31081081.18648649.49729729.43513514.55945946h.37297297c2.17567568-.55945946 4.35135135-1.18108108 6.4027027-1.86486487l.43513514-.12432432h.06216216l.24864865-.06216217z"/></g><g transform="translate(39.162 4.973)"><path d="m10.8162162.74594595c0 .43513513-.2486486.68378378-.5594594.8081081-.43513518.12432433-.80810815.24864865-1.24324329.37297298-2.67297297.74594594-5.34594594 1.49189189-8.01891891 2.23783783-.18648649.06216217-.37297298.06216217-.4972973 0-.37297298-.12432432-.4972973-.43513513-.4972973-.74594594 0-.37297297.24864865-.62162162.4972973-.74594595.37297297-.12432432.68378378-.24864865 1.05675675-.31081081 2.73513514-.74594594 5.53243244-1.55405405 8.20540541-2.3.31081084-.06216216.55945944-.06216216.74594594.18648649.2486487.12432432.3108108.31081081.3108108.4972973z" transform="translate(.622 .622)"/><path d="m1.24324324 5.03513514c-.06216216 0-.18648648 0-.24864864-.06216217-.43513514-.12432432-.62162163-.43513513-.62162163-.87027027 0-.43513513.31081081-.74594594.62162163-.87027027.24864864-.06216216.49729729-.18648648.74594594-.24864865l2.48648649-.68378378c2.05135135-.55945946 4.04054054-1.11891892 6.02972977-1.74054054.3729729-.12432432.6837837-.06216216.9324324.24864865.1864865.18648649.3108108.43513513.3108108.62162162 0 .43513513-.3108108.80810811-.6837838.93243243-.3108108.06216216-.5594594.18648649-.87027025.24864865l-2.05135136.55945946c-2.17567567.55945946-4.28918918 1.18108108-6.34054054 1.8027027.06216217 0-.12432432.06216217-.31081081.06216217zm9.44864866-4.35135136c-.0621622 0-.1864865 0-.2486487.06216217-2.05135131.55945946-4.0405405 1.11891891-6.02972969 1.74054054l-2.48648648.68378378c-.24864865.06216216-.4972973.12432432-.74594595.24864865-.31081081.06216216-.43513513.31081081-.43513513.55945946 0 .31081081.18648648.4972973.43513513.55945946.12432433.06216216.24864865.06216216.43513514 0 2.17567567-.55945946 4.28918919-1.18108108 6.34054054-1.8027027l2.05135134-.55945946c.3108108-.06216217.5594595-.18648649.8702703-.24864865.3108108-.06216217.4351351-.37297298.4351351-.62162162 0-.18648649-.0621621-.31081081-.1864865-.43513514-.1243243-.06216216-.2486486-.18648649-.4351351-.18648649z"/></g><g transform="translate(39.162 2.487)"><path d="m11.3756757.9945946c0 .37297297-.2486487.62162162-.5594595.74594594-.5594594.18648649-1.1189189.31081081-1.74054052.43513514-2.54864865.68378378-5.0972973 1.42972973-7.58378379 2.17567567-.18648648.06216216-.37297297.06216216-.55945946 0-.31081081-.12432432-.43513513-.43513513-.43513513-.74594594 0-.31081082.24864865-.55945946.4972973-.68378379.37297297-.12432432.68378378-.18648648 1.05675675-.31081081 2.73513514-.74594595 5.53243243-1.55405405 8.20540545-2.3.1864864-.06216216.3729729-.06216216.4972973 0 .4351351 0 .6216216.37297297.6216216.68378379z"/><path d="m1.24324324 4.53783784c-.12432432 0-.24864864 0-.37297297-.06216216-.37297297-.18648649-.55945946-.4972973-.55945946-.93243244 0-.37297297.31081081-.68378378.62162162-.8081081.24864865-.06216217.4972973-.18648649.74594595-.24864865l2.42432432-.68378379c2.05135135-.55945946 4.04054054-1.11891892 6.0918919-1.74054054.1864865-.06216216.372973-.06216216.5594595 0 .4351351.12432433.6216216.43513514.6216216.87027027 0 .43513514-.3108108.74594595-.6216216.87027027-.4351352.12432433-.87027032.24864865-1.24324329.37297298l-2.23783784.62162162c-1.92702702.49729729-3.91621621 1.05675675-5.71891892 1.61621621-.12432432.12432433-.18648648.12432433-.31081081.12432433zm9.38648646-4.22702703c-.0621621 0-.1864865 0-.2486486.06216216-2.05135137.55945946-4.04054056 1.11891892-6.09189191 1.74054054l-2.42432433.68378379c-.24864864.06216216-.49729729.12432432-.74594594.24864865-.24864865.06216216-.43513514.31081081-.43513514.49729729 0 .31081081.12432433.4972973.37297298.62162162.12432432.06216217.31081081.06216217.43513513 0 1.92702703-.49729729 3.91621622-1.05675675 5.71891892-1.61621621l2.23783784-.62162162c.43513513-.12432433.87027025-.24864865 1.24324325-.37297298.3108108-.06216216.4351351-.31081081.4351351-.55945945 0-.24864865-.1864865-.4972973-.4351351-.55945946.0621622-.12432433 0-.12432433-.0621622-.12432433z"/></g><g transform="translate(39.162 8.082)"><path d="m0 3.79189189c0-.37297297.24864865-.62162162.55945946-.74594594.55945946-.18648649 1.18108108-.37297298 1.8027027-.4972973 2.48648649-.68378379 5.03513514-1.42972973 7.52162162-2.17567568.31081082-.06216216.49729732-.06216216.74594592.12432433.2486487.18648648.372973.43513513.3108108.74594594-.0621621.31081081-.2486486.4972973-.4972973.62162162-.4351351.12432433-.7459459.24864865-1.18108104.37297298-2.73513513.74594594-5.47027027 1.55405405-8.14324324 2.3-.18648649.06216216-.37297297.06216216-.4972973 0-.37297297-.06216216-.62162162-.37297298-.62162162-.74594595z" transform="translate(.622)"/><path d="m1.36756757 4.72432432c-.06216216 0-.18648649 0-.24864865-.06216216-.43513514-.12432432-.62162162-.43513513-.62162162-.87027027 0-.43513513.31081081-.74594594.68378378-.87027027.43513514-.12432432.93243243-.24864865 1.42972973-.43513513l2.36216216-.62162163c1.86486487-.49729729 3.66756757-1.05675675 5.59459463-1.55405405.3729729-.12432432.6216216-.06216216.8702702.12432433.3108108.24864864.4351352.49729729.372973.87027027-.0621622.37297297-.3108108.62162162-.6216216.74594594-.3108108.06216216-.4972973.18648649-.8081081.24864865-.1243243.06216216-.2486487.06216216-.372973.12432432l-1.80270269.4972973c-2.17567568.55945946-4.22702703 1.18108108-6.34054055 1.8027027-.18648648-.06216216-.37297297 0-.49729729 0zm-.74594595-.93243243h.18648649c0 .31081081.18648649.4972973.43513513.55945946.12432433.06216216.24864865 0 .43513514 0 2.17567567-.55945946 4.22702703-1.18108108 6.34054054-1.8027027l1.8027027-.4972973c.12432433-.06216216.24864868-.06216216.37297298-.12432432.3108108-.06216217.4972973-.18648649.8081081-.24864865.2486487-.06216216.4351351-.24864865.4351351-.43513514.0621622-.24864864-.0621621-.43513513-.2486486-.55945946-.1864865-.12432432-.372973-.18648648-.5594595-.12432432-1.86486484.4972973-3.66756754 1.05675676-5.59459456 1.55405405l-2.36216217.62162163c-.43513513.12432432-.93243243.24864864-1.42972973.43513513-.31081081.06216216-.43513513.31081081-.43513513.55945946z"/></g><g transform="translate(39.162 .622)"><path d="m1.24324324 2.98378378c-.43513513 0-.68378378-.31081081-.74594594-.62162162-.06216216-.37297297.18648648-.74594594.4972973-.87027027.37297297-.12432432.74594594-.24864865 1.11891891-.31081081 1.18108108-.37297297 2.42432433-.68378378 3.60540541-.99459459.43513513-.12432433.74594594.06216216.93243243.43513513.18648649.43513514-.06216216.93243243-.4972973 1.05675676-.43513513.12432432-.74594594.24864865-1.18108108.37297297-1.18108108.37297297-2.36216216.62162162-3.54324324.9945946 0-.12432433-.06216216-.06216217-.18648649-.06216217z" transform="translate(0 .622)"/><path d="m1.30540541 3.79189189c-.43513514 0-.87027027-.37297297-.93243244-.74594594-.06216216-.43513514.18648649-.87027027.62162163-1.05675676.24864864-.06216216.49729729-.18648649.74594594-.24864865l.9945946-.31081081c.99459459-.31081081 1.98918918-.4972973 2.98378378-.80810811.43513513-.12432432.93243243.06216216 1.11891892.4972973.12432432.24864865.12432432.4972973 0 .74594594-.12432433.24864865-.37297298.43513514-.55945946.4972973-.31081081.06216216-.4972973.18648649-.80810811.24864865l-.99459459.31081081c-.93243244.31081081-1.98918919.4972973-2.92162163.80810811-.06216216.06216216-.12432432.06216216-.24864864.06216216.06216216-.06216216 0-.06216216 0 0zm4.72432432-2.98378378c-.06216216 0-.12432432 0-.18648649 0-.99459459.31081081-1.98918919.4972973-2.98378378.80810811l-.68378378.18648648c-.12432433.06216216-.24864865.06216216-.37297298.12432433-.24864865.06216216-.49729729.12432432-.74594594.24864865-.31081081.12432432-.43513514.43513513-.43513514.68378378.06216216.31081081.31081081.4972973.55945946.4972973h.06216216c.06216217 0 .12432433 0 .18648649-.06216217.93243243-.31081081 1.98918919-.49729729 2.92162162-.8081081l.9945946-.31081081c.31081081-.06216217.49729729-.18648649.8081081-.24864865.18648649-.06216217.37297298-.18648649.43513514-.37297298.06216216-.18648648.06216216-.37297297 0-.49729729-.06216216-.12432433-.31081081-.24864865-.55945946-.24864865z"/></g><g transform="translate(41.648 26.73)"><path d="m3.66756757.9945946c-.87027027 0-1.80270271 0-2.73513514.06216216-.18648648 0-.24864865-.06216216-.31081081-.18648649-.06216216-.12432432 0-.31081081.06216216-.43513513.06216217-.06216217.12432433-.06216217.18648649-.06216217h1.67837838c1.24324324 0 2.48648649-.06216216 3.72972973-.06216216h.06216216c.18648649 0 .24864865.06216216.31081081.24864865s0 .37297297-.12432432.43513514c-.06216217 0-.12432433.06216216-.18648649.06216216-.4972973 0-1.05675676 0-1.67837838 0-.18648648-.06216216-.55945946-.12432433-.99459459-.06216216z"/><path d="m.9945946 1.18108108c-.31081082 0-.43513514-.18648648-.43513514-.31081081-.06216216-.18648649 0-.43513513.12432432-.55945946.12432433-.06216216.18648649-.12432432.31081082-.12432432h1.18108108l4.28918918-.06216217c.24864865 0 .37297298.12432433.43513514.37297298s0 .43513513-.18648649.55945946c-.06216216.06216216-.18648648.06216216-.24864865.06216216-.49729729 0-1.05675675 0-1.67837837 0-.24864865 0-.4972973 0-.74594595 0h-.18648649-.87027027c-.62162162.06216216-1.24324324.06216216-1.98918918.06216216zm5.47027026-.74594594c-.06216216 0-.06216216 0 0 0l-4.28918918.06216216c-.43513514 0-.74594595 0-1.18108108 0-.06216217 0-.06216217 0-.06216217 0-.06216216.06216216-.06216216.18648648-.06216216.24864865 0 .06216216.06216216.12432432.18648649.12432432h1.98918919.55945946.43513513.74594595 1.67837837.06216217c.06216216 0 .06216216-.12432432.06216216-.24864865 0-.18648648-.06216216-.18648648-.12432433-.18648648z"/></g><g transform="translate(42.27 29.217)"><path d="m2.85945946 1.05675676c-.43513514 0-1.24324324 0-2.05135135 0h-.06216216c-.06216217 0-.06216217 0-.12432433 0-.12432432-.06216216-.18648648-.18648649-.12432432-.37297298 0-.12432432.12432432-.18648648.24864865-.24864864h.06216216c1.55405405 0 3.04594594-.06216217 4.72432432-.06216217h.12432433c.12432432 0 .24864865.12432433.24864865.24864865v.06216216c0 .12432433-.12432433.24864865-.24864865.24864865h-.06216217c-.93243243.12432433-1.67837837.12432433-2.73513513.12432433z"/><path d="m.74594595 1.24831081c-.06216217 0-.06216217 0 0 0-.12432433 0-.12432433 0-.18648649-.0625-.18648649-.0625-.24864865-.3125-.24864865-.4375s.18648649-.3125.37297297-.375h.06216217l4.72432432-.0625h.12432432c.24864865 0 .37297298.1875.37297298.4375v.125c0 .25-.18648649.375-.37297298.4375h-.06216216-4.78648648zm0-.5625c-.06216217 0-.06216217 0 0 0-.06216217 0-.12432433.0625-.12432433.0625 0 .0625 0 .125.06216216.1875h.06216217.06216216l4.72432432-.0625h.06216216c.06216217 0 .12432433-.0625.12432433-.125v-.0625c0-.0625-.06216216-.125-.12432433-.125h-.06216216z"/></g><g transform="translate(41.648 24.244)"><path d="m2.85945946.74594595c-.62162162 0-1.55405405 0-2.42432432.06216216-.06216217 0-.12432433 0-.18648649 0-.12432433 0-.24864865-.12432433-.24864865-.24864865s.12432432-.24864865.24864865-.24864865h.93243243c1.55405406 0 2.98378378-.06216216 4.6-.06216216h.12432433c.12432432 0 .18648648.12432432.24864864.24864865 0 .12432432-.06216216.24864865-.18648648.24864865-.06216216 0-.12432433 0-.18648649 0-.93243243 0-1.8027027 0-2.92162162 0z" transform="translate(.622)"/><path d="m.9945946 1.06216216c-.31081082 0-.43513514-.21428571-.43513514-.5 0-.28571428.18648649-.42857143.43513514-.42857143h.93243243c1.36756756 0 2.73513513-.07142857 4.16486486-.07142857h.43513514.12432432c.18648649 0 .31081081.21428572.37297297.42857143 0 .21428572-.12432432.42857143-.31081081.5-.06216216 0-.12432432 0-.18648648 0-.68378379 0-1.49189189 0-2.3 0zm5.4081081-.64285714h-.43513513c-1.36756757 0-2.73513514.07142857-4.16486487.07142857-.31081081 0-.62162162 0-.93243243 0-.06216216 0-.12432432.07142857-.12432432.07142857 0 .07142857.06216216.14285715.12432432.14285715h.12432433.06216216l2.98378378-.07142858h2.3.12432432c.06216217 0 .06216217-.07142857.06216217-.14285714s0-.07142857-.12432433-.07142857c.06216216 0 .06216216 0 0 0z"/></g><g transform="translate(41.648 27.973)"><path d="m3.10810811 1.05675676c-.87027027 0-1.8027027 0-2.67297297.06216216-.06216217 0-.12432433 0-.12432433 0-.12432432 0-.18648649-.12432432-.24864865-.24864865 0-.12432432.06216216-.24864865.18648649-.24864865h.18648649c1.55405405 0 3.04594594-.06216216 4.66216216-.06216216h.87027027c.12432432 0 .18648648.06216216.24864865.12432432.06216216.12432433 0 .31081082-.18648649.37297298 0 0-.06216216 0-.12432432 0-.93243244 0-1.80270271 0-2.7972973 0z" transform="translate(.622)"/><path d="m.9945946 1.43513514c-.24864865 0-.43513514-.21428572-.43513514-.42857143 0-.21428572.12432432-.42857143.24864865-.5h.24864865c1.05675675 0 2.17567567 0 3.17027027-.07142857h1.42972973.49729729.31081081c.18648649 0 .31081082.07142857.37297298.28571428.06216216.14285714.06216216.28571429 0 .42857143s-.18648649.21428571-.31081081.28571429c-.06216217 0-.06216217 0-.12432433 0zm5.53243243-.71428572h-.31081081c-.18648649 0-.37297298 0-.4972973 0h-1.42972973c-1.05675676 0-2.17567568 0-3.17027027.07142857-.06216216 0-.06216216 0-.12432432 0-.06216217 0-.06216217.07142857-.06216217.14285715 0 .07142857.06216217.07142857.06216217.07142857h.12432432 2.48648649l2.98378378-.07142857h.06216216s.06216216 0 .06216216-.07142858v-.07142857c-.12432432-.07142857-.12432432-.07142857-.18648648-.07142857z"/></g><g transform="translate(41.648 25.487)"><path d="m2.85945946.74594595c-.62162162 0-1.55405405 0-2.42432432.06216216-.06216217 0-.12432433 0-.12432433 0-.12432432 0-.24864865-.12432433-.24864865-.24864865s.12432433-.24864865.24864865-.24864865h.93243243c1.4918919 0 2.98378379-.06216216 4.53783784-.06216216h.12432433c.12432432 0 .18648648.12432432.24864864.24864865 0 .12432432-.06216216.24864865-.18648648.24864865-.06216216 0-.12432433 0-.12432433 0-.93243243 0-1.86486486 0-2.98378378 0z" transform="translate(.622)"/><path d="m.9945946 1.12432432c-.31081082 0-.43513514-.21428571-.43513514-.5 0-.28571428.18648649-.42857142.43513514-.42857142h.93243243c1.36756756 0 2.73513513-.07142858 4.1027027-.07142858h.43513513.12432433c.18648649 0 .37297297.21428572.37297297.42857143 0 .21428572-.12432432.42857143-.31081081.5-.06216216 0-.12432432 0-.18648649 0-.74594594 0-1.49189189 0-2.36216216 0zm5.47027026-.64285714c-.06216216 0-.06216216 0 0 0h-.49729729c-1.36756757 0-2.73513514.07142857-4.10270271.07142857-.31081081 0-.62162162 0-.93243243 0-.06216216 0-.06216216.07142857-.12432432.07142857 0 .07142858.06216216.14285715.12432432.14285715h.06216217.06216216l2.98378378-.07142857h2.36216216.12432433c.06216216 0 .06216216-.07142858.06216216-.14285715 0 0-.06216216-.07142857-.12432433-.07142857z"/></g><g transform="translate(43.513 30.46)"><path d="m1.74054054.74594595c-.37297297 0-.68378378 0-1.05675676 0-.06216216 0-.12432432 0-.12432432 0-.12432432-.06216217-.18648649-.12432433-.18648649-.24864865 0-.12432433.12432433-.18648649.24864865-.24864865h.06216216 2.17567568.12432432c.12432433.06216216.18648649.12432432.18648649.24864865 0 .12432432-.06216216.18648648-.18648649.24864865-.06216216 0-.12432432 0-.12432432 0-.31081081 0-.74594595 0-1.11891892 0z"/><path d="m1.30540541 1.12432432c-.18648649 0-.37297298 0-.4972973 0-.06216216 0-.12432433 0-.18648649 0-.18648648-.07692307-.31081081-.3076923-.24864865-.53846153 0-.23076923.18648649-.46153847.37297298-.46153847h.06216216.31081081 1.86486486.18648649c.18648649.07692308.31081081.30769231.24864865.53846154 0 .23076923-.12432433.38461539-.31081081.46153846-.06216216 0-.12432433 0-.18648649 0-.31081081 0-.4972973 0-.80810811 0h-.12432432-.43513514c-.12432432 0-.18648648 0-.24864864 0zm1.55405405-.69230769c-.62162162 0-1.24324324 0-1.92702703 0h-.31081081-.06216216c-.06216216 0-.06216216.07692308-.06216216.07692308s0 .07692308.06216216.15384615h.12432432.80810811.12432433.43513513.80810811.12432432c.06216217 0 .06216217-.07692307.06216217-.07692307 0-.07692308 0-.07692308-.06216217-.07692308-.06216216-.07692308-.06216216-.07692308-.12432432-.07692308z"/></g><g transform="translate(44.135 31.082)"><path d="m.62162162.31081081h.37297298.12432432c.06216216 0 .12432432.06216216.12432432.12432433 0 .06216216-.06216216.12432432-.12432432.12432432h-.06216216c-.24864865 0-.43513514 0-.68378379 0 0 0 0 0-.06216216 0s-.12432432-.06216216-.12432432-.12432432c0-.06216217.06216216-.12432433.12432432-.12432433h.31081081c-.12432432 0-.06216216 0 0 0z" transform="translate(.622)"/><path d="m.87027027.80810811c-.18648649 0-.31081081-.12432433-.31081081-.31081081 0-.18648649.12432432-.31081081.31081081-.31081081h.24864865.31081081.24864865.12432432c.12432433.06216216.24864865.18648648.24864865.31081081 0 .12432432-.12432432.24864865-.24864865.31081081-.06216216 0-.06216216 0-.12432432 0-.18648649 0-.37297297 0-.55945946 0h-.24864865c.06216216 0 .06216216 0 0 0z"/></g><path d="m.311 35.929h89.824v1h-89.824z"/><path d="m4.53783784.43513514v3.23243243c0 .12432432-.12432433.24864865-.24864865.24864865-.12432433 0-.24864865-.12432433-.24864865-.24864865v-3.04594595l-1.24324324 3.04594595c-.06216216.12432432-.18648649.24864865-.37297298.24864865-.18648648 0-.31081081-.12432433-.37297297-.24864865l-1.24324324-3.04594595v3.04594595c0 .12432432-.12432433.24864865-.24864865.24864865s-.24864865-.12432433-.24864865-.24864865v-3.23243243c0-.18648649.18648649-.37297298.37297297-.37297298h.18648649c.12432433 0 .31081081.12432433.31081081.24864865l1.18108108 3.04594595 1.18108108-3.04594595c.06216217-.12432432.18648649-.24864865.31081081-.24864865h.18648649c.37297297.06216216.4972973.18648649.4972973.37297298zm5.90540536 3.17027027c0 .12432432-.1243243.24864864-.2486486.24864864s-.1864865-.06216216-.24864865-.18648648l-.37297298-.80810811h-1.8027027l-.37297297.80810811c-.06216216.12432432-.12432433.18648648-.24864865.18648648-.18648649 0-.24864865-.12432432-.24864865-.24864864 0-.06216217 0-.06216217 0-.12432433l1.36756757-3.23243243c.06216216-.12432433.18648648-.24864865.31081081-.24864865h.06216216c.18648649 0 .24864865.12432432.31081081.24864865l1.36756755 3.23243243c.1243243.06216216.1243243.12432433.1243243.12432433zm-.99459455-1.18108109-.74594595-1.74054054-.74594594 1.74054054zm6.34054055 1.18108109c0 .12432432-.1243243.24864864-.2486487.24864864-.1864864 0-.2486486-.12432432-.2486486-.24864864v-.18648649c0-.37297297 0-1.05675676-.8081081-1.05675676h-1.1189189v1.24324325c0 .12432432-.1243244.24864864-.2486487.24864864s-.2486486-.12432432-.2486486-.24864864v-3.2945946c0-.12432432.1243243-.24864865.2486486-.24864865h1.2432433c.9945946 0 1.4297297.4972973 1.4297297 1.05675676 0 .43513513-.2486487.80810811-.745946.93243243.6216217.18648649.6837838.87027027.6837838 1.18108108zm-.4972973-2.36216217c0-.43513513-.2486487-.68378378-.9945946-.68378378h-.9324324v1.36756757h.9324324c.6837838 0 .9945946-.18648649.9945946-.68378379zm6.0918919 2.36216217c0 .12432432-.1243243.24864864-.2486487.24864864-.0621621 0-.1864865-.06216216-.1864865-.12432432l-1.3675675-1.74054054-.6216216.62162162v.9945946c0 .12432432-.1243244.24864864-.2486487.24864864s-.2486486-.12432432-.2486486-.24864864v-3.2945946c0-.12432432.1243243-.24864865.2486486-.24864865s.2486487.12432433.2486487.24864865v1.74054054l1.8648648-1.86486486c.0621622-.06216217.1243243-.06216217.1864865-.06216217.1243243 0 .2486487.12432433.2486487.24864865 0 .06216217 0 .12432433-.0621622.18648649l-1.2432432 1.24324324 1.4297297 1.80270271c-.0621622-.06216217 0-.06216217 0 0zm5.0972973 0c0 .12432432-.1243243.24864864-.2486487.24864864h-2.1756756c-.1243244 0-.2486487-.12432432-.2486487-.24864864v-3.2945946c0-.12432432.1243243-.24864865.2486487-.24864865h2.1756756c.1243244 0 .2486487.12432433.2486487.24864865 0 .12432433-.1243243.24864865-.2486487.24864865h-1.927027v1.18108108h1.7405405c.1243244 0 .2486487.12432432.2486487.24864865 0 .12432432-.1243243.24864865-.2486487.24864865h-1.7405405v1.18108108h1.927027c.1243244-.06216216.2486487.06216216.2486487.18648649zm5.2216216-3.2945946c0 .12432433-.1243243.24864865-.2486486.24864865h-1.0567568v3.04594595c0 .12432432-.1243243.24864864-.2486487.24864864-.1243243 0-.2486486-.12432432-.2486486-.24864864v-3.04594595h-1.0567568c-.1243243 0-.2486486-.12432432-.2486486-.24864865 0-.12432432.1243243-.24864865.2486486-.24864865h2.672973c.0621622.06216216.1864865.18648649.1864865.24864865zm6.0918919 0v3.2945946c0 .12432432-.1243243.24864864-.2486487.24864864-.1243243 0-.2486486-.12432432-.2486486-.24864864v-3.2945946c0-.12432432.1243243-.24864865.2486486-.24864865.1243244.06216216.2486487.18648649.2486487.24864865zm6.0918919 0v3.23243243c0 .18648649-.1864865.37297298-.372973.37297298h-.0621621c-.1243244 0-.2486487-.06216217-.3108109-.12432433l-2.1135135-2.98378378v2.85945946c0 .12432432-.1243243.24864865-.2486486.24864865s-.2486487-.12432433-.2486487-.24864865v-3.23243243c0-.18648649.1864865-.37297298.372973-.37297298h.0621622c.1243243 0 .2486486.06216216.3108108.18648649l2.1135135 2.98378378v-2.92162162c0-.12432432.1243243-.24864865.2486486-.24864865.1243244 0 .2486487.18648649.2486487.24864865zm5.3459459 2.54864865c0 .62162162-.5594594.99459459-1.3675675.99459459-.5594595 0-.9324325-.12432432-1.2432433-.24864864-.0621621-.06216217-.1864865-.12432433-.1864865-.24864865 0-.12432433.0621622-.24864865.2486487-.24864865h.1243243c.2486487.12432432.6216216.24864865 1.0567568.24864865.5594594 0 .9324324-.18648649.9324324-.62162162 0-.74594595-2.2378378-.37297298-2.2378378-1.67837838 0-.62162162.4972973-1.05675676 1.3675675-1.05675676.4351352 0 .745946.06216216 1.0567568.18648649.0621621 0 .1864865.06216216.1864865.24864865 0 .12432432-.0621622.24864864-.2486487.24864864h-.0621621c-.2486487-.06216216-.5594595-.12432432-.8081081-.12432432-.5594595 0-.9324325.18648649-.9324325.62162162-.1243243.87027027 2.1135135.31081081 2.1135135 1.67837838zm2.9837838-2.54864865v3.2945946c0 .12432432-.1243243.24864864-.2486486.24864864-.1243244 0-.2486487-.12432432-.2486487-.24864864v-3.2945946c0-.12432432.1243243-.24864865.2486487-.24864865.1243243.06216216.2486486.18648649.2486486.24864865zm5.9054054 1.74054054v1.18108108c0 .18648649-.0621621.31081081-.1864865.37297298-.3729729.18648648-.7459459.31081081-1.2432432.31081081-1.1189189 0-1.8648649-.74594595-1.8648649-1.92702703 0-1.11891892.8081081-1.92702703 1.8648649-1.92702703.6216216 0 .9945946.18648649 1.3054054.37297298.0621622 0 .1243243.12432432.1243243.18648648 0 .12432433-.0621621.24864865-.2486486.24864865-.0621622 0-.0621622 0-.1243244 0-.3108108-.18648649-.6837837-.31081081-1.0567567-.31081081-.8081081 0-1.4297297.55945946-1.4297297 1.42972973 0 .80810811.5594594 1.42972973 1.4297297 1.42972973.372973 0 .7459459-.12432433.9324324-.24864865v-.93243243h-.8702702c-.1243244 0-.2486487-.12432433-.2486487-.24864865 0-.12432433.1243243-.24864865.2486487-.24864865h1.0567567c.1864865.06216216.3108108.12432432.3108108.31081081zm5.7189189-1.74054054v3.2945946c0 .12432432-.1243243.24864864-.2486486.24864864s-.2486487-.12432432-.2486487-.24864864v-1.42972973h-2.0513513v1.42972973c0 .12432432-.1243243.24864864-.2486487.24864864-.1243243 0-.2486486-.12432432-.2486486-.24864864v-3.2945946c0-.12432432.1243243-.24864865.2486486-.24864865.1243244 0 .2486487.12432433.2486487.24864865v1.42972973h2.0513513v-1.42972973c0-.12432432.1243244-.24864865.2486487-.24864865s.2486486.18648649.2486486.24864865zm5.4702703 0c0 .12432433-.1243243.24864865-.2486486.24864865h-1.0567568v3.04594595c0 .12432432-.1243243.24864864-.2486486.24864864-.1243244 0-.2486487-.12432432-.2486487-.24864864v-3.04594595h-1.0567567c-.1243244 0-.2486487-.12432432-.2486487-.24864865 0-.12432432.1243243-.24864865.2486487-.24864865h2.6729729c.0621622.06216216.1864865.18648649.1864865.24864865zm9.0756757 1.67837838c0 1.11891892-.745946 1.92702703-1.8648649 1.92702703s-1.8648648-.74594595-1.8648648-1.92702703c0-1.11891892.7459459-1.92702703 1.8648648-1.92702703 1.1810811 0 1.8648649.80810811 1.8648649 1.92702703zm-.4972973 0c0-.80810811-.5594595-1.49189189-1.3675676-1.49189189-.8702702 0-1.3675675.68378378-1.3675675 1.49189189s.4972973 1.49189189 1.3675675 1.49189189c.9324325-.06216216 1.3675676-.68378378 1.3675676-1.49189189zm6.154054-1.67837838v2.11351351c0 .9945946-.8081081 1.42972973-1.554054 1.42972973-.745946 0-1.5540541-.49729729-1.5540541-1.42972973v-2.11351351c0-.12432432.1243244-.24864865.2486487-.24864865s.2486486.12432433.2486486.24864865v2.17567568c0 .68378378.5594595.99459459 1.0567568.99459459s1.0567567-.31081081 1.0567567-.99459459v-2.17567568c0-.12432432.1243244-.24864865.2486487-.24864865s.2486486.18648649.2486486.24864865zm5.4702703 0c0 .12432433-.1243243.24864865-.2486486.24864865h-1.0567568v3.04594595c0 .12432432-.1243243.24864864-.2486486.24864864-.1243244 0-.2486487-.12432432-.2486487-.24864864v-3.04594595h-1.0567567c-.1243244 0-.2486487-.12432432-.2486487-.24864865 0-.12432432.1243243-.24864865.2486487-.24864865h2.6729729c.1243244.06216216.1864865.18648649.1864865.24864865z" transform="translate(0 41.649)"/><path d="m4.476 32.324h-2.052-2.051v-31.205h3.046 3.046l8.951 26.605 8.827-26.605h3.046 3.046v31.205h-2.051-2.052v-26.419l-8.827 26.419h-2.051-2.051l-8.827-26.356z"/><path d="m63.5297297 28.6567568c-2.7972973-3.045946-4.227027-7.0243244-4.227027-11.9351352s1.4297297-8.88918917 4.227027-11.93513511c2.7972973-3.04594595 6.4648649-4.53783784 11.0027027-4.53783784 4.5378379 0 8.2675676 1.49189189 11.0648649 4.53783784 2.7972973 3.04594594 4.227027 7.02432431 4.227027 11.93513511s-1.4297297 8.8891892-4.227027 11.9351352c-2.7972973 3.0459459-6.4648649 4.5378378-11.0648649 4.5378378-4.5378378 0-8.2054054-1.5540541-11.0027027-4.5378378zm18.8972973-2.7351352c1.9891892-2.3621621 2.9837838-5.4081081 2.9837838-9.2s-.9945946-6.89999998-2.9837838-9.26216214-4.6-3.54324324-7.8945946-3.54324324c-3.2324324 0-5.8432432 1.18108108-7.8324324 3.54324324s-2.9837838 5.40810814-2.9837838 9.26216214c0 3.7918919.9945946 6.8378379 2.9837838 9.2 1.9891892 2.3621622 4.6 3.4810811 7.8324324 3.4810811 3.2324325.0621622 5.8432433-1.1189189 7.8945946-3.4810811z"/></g></svg>