<svg xmlns="http://www.w3.org/2000/svg" xmlns:xlink="http://www.w3.org/1999/xlink" version="1.1" style="enable-background:new 0 0 140 140;" xml:space="preserve" width="89" height="89"><rect id="backgroundrect" width="100%" height="100%" x="0" y="0" fill="none" stroke="none" class="" style=""/>
<style type="text/css">
	.st0{fill:#202529;}
	.st1{fill:#808285;}
	.st2{fill:#58595B;}
	<!-- .st3{fill:#6c757d;} -->
</style>

<g class="currentLayer" style=""><title>Layer 1</title><g id="svg_1" class="">
	<path class="st3" d="M47.97210419654846,1.352105627059938 c-17.98,-1.6400000000000001 -33.94,7.74 -41.9,22.16 c-0.4100000000000003,0.7400000000000032 -0.13,1.6900000000000008 0.6100000000000032,2.11 l15.97,9.22 c0.7600000000000037,0.4400000000000016 1.75,0.18000000000000024 2.16,-0.6000000000000006 c4.1,-7.73 12.74,-12.67 22.37,-11.25 c9.53,1.4 17.09,9.27 18.17,18.84 c1.47,13.04 -8.7,24.1 -21.45,24.1 c-8.27,0 -15.46,-4.65 -19.09,-11.49 c-0.4100000000000003,-0.78 -1.4,-1.04 -2.16,-0.6000000000000006 l-15.97,9.23 c-0.7400000000000032,0.4200000000000003 -1.02,1.37 -0.6100000000000032,2.11 c7.34,13.33 21.52,22.35 37.82,22.35 c25.48,0 45.8,-22.06 42.91,-48.13 C84.57210419654847,19.262105627059942 68.14210419654846,3.192105627059938 47.97210419654846,1.352105627059938 z" id="svg_2"/>
	<path class="st3" d="M5.102104196548464,54.94210562705993 c-0.93,0.56 -2.11,0.04000000000000011 -2.36,-1.02 c-0.7400000000000032,-3.19 -1.1400000000000001,-6.53 -1.1400000000000001,-9.94 c0,-3.41 0.4100000000000003,-6.59 1.1600000000000001,-9.73 c0.25,-1.04 1.42,-1.56 2.34,-1.01 l15.84,9.4 c1.02,0.6100000000000032 1.03,2.09 0.010000000000000056,2.7 L5.102104196548464,54.94210562705993 z" id="svg_3"/>
</g></g></svg>