<svg class="w-[124px] h-[30px] text-white fill-white" viewBox="0 0 125 30" xmlns="http://www.w3.org/2000/svg"><path d="m64.099 5.86-2.151-1.809-6.179 7.382V1.798h-2.808v9.635l-6.178-7.382-2.152 1.81 6.179 7.38-9.459-1.69-.489 2.773 9.46 1.69-8.336 4.818 1.404 2.44 8.318-4.818-3.285 9.055 2.64.964 3.285-9.055 3.286 9.055 2.634-.964-3.28-9.055 8.313 4.818 1.404-2.44-8.313-4.818 9.459-1.69-.489-2.772-9.458 1.69 6.195-7.382Zm-51.978 15.4a5.933 5.933 0 0 1-3.1.722 5.71 5.71 0 0 1-3.494-.998 3.376 3.376 0 0 1-1.466-2.564H.001a6.107 6.107 0 0 0 2.555 5.044c1.651 1.21 3.82 1.816 6.504 1.82a11.531 11.531 0 0 0 4.291-.761 6.87 6.87 0 0 0 3.005-2.198 5.291 5.291 0 0 0 1.096-3.307 4.987 4.987 0 0 0-1.056-3.348 6.037 6.037 0 0 0-2.809-1.803 21.782 21.782 0 0 0-4.336-.84c-1.275-.157-2.196-.298-2.769-.41a3.287 3.287 0 0 1-1.426-.632 1.623 1.623 0 0 1-.562-1.352 2.163 2.163 0 0 1 1.123-1.916 5.557 5.557 0 0 1 2.966-.704 5.043 5.043 0 0 1 3.044.879 3.152 3.152 0 0 1 1.37 2.254h4.095a5.976 5.976 0 0 0-2.555-4.74c-1.573-1.126-3.623-1.69-6.15-1.69a10.283 10.283 0 0 0-4.118.784 6.704 6.704 0 0 0-2.847 2.214 5.416 5.416 0 0 0-1.034 3.268 4.517 4.517 0 0 0 1.034 3.116 5.984 5.984 0 0 0 2.73 1.69 25.14 25.14 0 0 0 4.313.84c1.275.158 2.219.31 2.808.451.545.107 1.051.358 1.466.727a1.974 1.974 0 0 1 .562 1.527 2.192 2.192 0 0 1-1.18 1.927ZM19.34 4.987h3.668l.51 2.975a7.752 7.752 0 0 1 2.86-2.42 7.725 7.725 0 0 1 3.656-.792 9.597 9.597 0 0 1 4.881 1.234 8.564 8.564 0 0 1 3.37 3.561 11.684 11.684 0 0 1 1.214 5.466 11.514 11.514 0 0 1-1.214 5.387 8.772 8.772 0 0 1-3.37 3.6 9.345 9.345 0 0 1-4.88 1.274 8.553 8.553 0 0 1-3.865-.822 6.836 6.836 0 0 1-2.612-2.254V30H19.34V4.987Zm4.179 9.945a7.296 7.296 0 0 0 1.6 4.897 5.283 5.283 0 0 0 4.213 1.882 5.314 5.314 0 0 0 4.235-1.882 7.11 7.11 0 0 0 1.623-4.818 7.013 7.013 0 0 0-1.623-4.817 5.791 5.791 0 0 0-4.212-1.824 5.775 5.775 0 0 0-4.213 1.824 6.94 6.94 0 0 0-1.623 4.738ZM74.687 0h-4.258v19.592c0 1.854.438 3.23 1.309 4.114.87.884 2.246 1.33 4.162 1.33h3.589v-3.72h-2.73a2.14 2.14 0 0 1-1.6-.49 2.36 2.36 0 0 1-.472-1.662V8.706h4.802v-3.72h-4.802V0Zm15.98 8.706v-3.72h-4.842V0h-4.219v19.592c0 1.854.427 3.23 1.287 4.114.859.884 2.246 1.33 4.14 1.33h4.06v-3.72h-3.201a2.162 2.162 0 0 1-1.601-.49 2.36 2.36 0 0 1-.466-1.662V8.706h4.841Zm19.282.563a10.059 10.059 0 0 1 1.303 5.072c0 .537-.037 1.074-.113 1.606h-15.07v.191a6.21 6.21 0 0 0 1.64 4.147 5.244 5.244 0 0 0 3.932 1.527c1.16.041 2.304-.28 3.275-.918a4.351 4.351 0 0 0 1.758-2.603h4.218a8.133 8.133 0 0 1-2.949 5.015 9.196 9.196 0 0 1-5.993 1.955 11.142 11.142 0 0 1-5.448-1.273 8.877 8.877 0 0 1-3.589-3.584 10.942 10.942 0 0 1-1.27-5.365 11.468 11.468 0 0 1 1.23-5.426 8.806 8.806 0 0 1 3.438-3.6 9.91 9.91 0 0 1 5.055-1.274 10.674 10.674 0 0 1 5.095 1.172 8.723 8.723 0 0 1 3.488 3.341v.017Zm-2.989 3.567a5.076 5.076 0 0 0-1.735-3.426 5.532 5.532 0 0 0-3.69-1.234 5.332 5.332 0 0 0-3.573 1.274 4.918 4.918 0 0 0-1.735 3.38l10.733.006Zm10.616 2.153c-.06-1.53.35-3.04 1.174-4.328.781-1.127 2.045-1.69 3.786-1.69h1.876V5.026h-.938a7.215 7.215 0 0 0-3.668.8 6.329 6.329 0 0 0-2.247 2.215l-.466-3.015h-3.746v20.05h4.212l.017-10.087Z" fill="currentColor"/></svg>