<?xml version="1.0" encoding="utf-8"?>
<!-- Generator: Adobe Illustrator 25.1.0, SVG Export Plug-In . SVG Version: 6.00 Build 0)  -->
<svg version="1.1" id="Layer_1" xmlns="http://www.w3.org/2000/svg" xmlns:xlink="http://www.w3.org/1999/xlink" x="0px" y="0px"
	 viewBox="0 0 400 400" style="enable-background:new 0 0 400 400;" xml:space="preserve">
<g>
	<path d="M393,7v386H7V7H393 M400,0H0v400h400V0L400,0z"/>
	<g>
		<path d="M82.2,276.4c2.4,0,3.7,1.6,3.7,3.4c0,1.6-1.6,3.4-3.4,3.4H59.9v71.7c0,1.8-1.8,3.4-3.7,3.4c-2.1,0-3.7-1.6-3.7-3.4v-71.7
			H29.7c-1.8,0-3.4-1.6-3.4-3.4c0-1.8,1.6-3.4,3.4-3.4H82.2z"/>
		<path d="M104,280.1c0-1.8,1.6-3.4,3.7-3.4s3.7,1.6,3.7,3.7v74.3c0,2.1-1.6,3.7-3.7,3.7s-3.7-1.6-3.7-3.4V280.1z"/>
		<path d="M143.1,319.2v35.2c0,2.1-1.6,3.7-3.7,3.7c-2.1,0-3.7-1.6-3.7-3.4v-72.7c0-3.2,2.4-5.5,5.8-5.5h39.7c2.6,0,3.9,1.6,3.9,3.4
			c0,1.8-1.3,3.4-3.7,3.4h-38.3v28.9h31.5c2.4,0,3.9,1.6,3.9,3.4c0,2.1-1.6,3.4-3.7,3.4L143.1,319.2L143.1,319.2z"/>
		<path d="M204.3,280.1c0-1.8,1.6-3.4,3.7-3.4s3.7,1.6,3.7,3.7v74.3c0,2.1-1.6,3.7-3.7,3.7s-3.7-1.6-3.7-3.4V280.1z"/>
		<path d="M287.3,280.1c0-1.8,1.6-3.4,3.7-3.4c2.1,0,3.7,1.6,3.7,3.4v69.3c0,5-3.9,8.9-9.2,8.9c-3.7,0-6.8-2.1-8.4-5.3l-31-67.7
			c-0.5-1.3-1.3-2.1-2.4-1.8c-1.1,0-1.6,0.8-1.6,2.4v69.1c0,1.8-1.6,3.4-3.7,3.4c-2.1,0-3.7-1.6-3.7-3.4v-69.3c0-5,3.9-8.9,9.2-8.9
			c3.7,0,6.8,2.1,8.4,5.3l31,67.7c0.5,1.3,1.3,2.1,2.4,1.8c1.1,0,1.6-0.8,1.6-2.4V280.1z"/>
	</g>
</g>
</svg>
