<?xml version="1.0" encoding="utf-8"?>
<!-- Generator: Adobe Illustrator 23.0.6, SVG Export Plug-In . SVG Version: 6.00 Build 0)  -->
<svg version="1.1" id="Layer_1" xmlns="http://www.w3.org/2000/svg" xmlns:xlink="http://www.w3.org/1999/xlink" x="0px" y="0px"
	 viewBox="0 0 192.5 192.5" style="enable-background:new 0 0 192.5 192.5;" xml:space="preserve">
<g>
	<g>
		<path d="M33.3,103.5c0.9,0,1.4,0.6,1.4,1.3c0,0.6-0.6,1.3-1.3,1.3h-8.6v27.3c0,0.7-0.7,1.3-1.4,1.3c-0.8,0-1.4-0.6-1.4-1.3v-27.3
			h-8.7c-0.7,0-1.3-0.6-1.3-1.3s0.6-1.3,1.3-1.3H33.3z"/>
		<path d="M41.6,104.9c0-0.7,0.6-1.3,1.4-1.3s1.4,0.6,1.4,1.4v28.3c0,0.8-0.6,1.4-1.4,1.4s-1.4-0.6-1.4-1.3V104.9z"/>
		<path d="M56.5,119.8v13.4c0,0.8-0.6,1.4-1.4,1.4s-1.4-0.6-1.4-1.3v-27.7c0-1.2,0.9-2.1,2.2-2.1H71c1,0,1.5,0.6,1.5,1.3
			c0,0.7-0.5,1.3-1.4,1.3H56.5v11h12c0.9,0,1.5,0.6,1.5,1.3c0,0.8-0.6,1.3-1.4,1.3L56.5,119.8L56.5,119.8z"/>
		<path d="M79.8,104.9c0-0.7,0.6-1.3,1.4-1.3s1.4,0.6,1.4,1.4v28.3c0,0.8-0.6,1.4-1.4,1.4s-1.4-0.6-1.4-1.3V104.9z"/>
		<path d="M111.4,104.9c0-0.7,0.6-1.3,1.4-1.3c0.8,0,1.4,0.6,1.4,1.3v26.4c0,1.9-1.5,3.4-3.5,3.4c-1.4,0-2.6-0.8-3.2-2l-11.8-25.8
			c-0.2-0.5-0.5-0.8-0.9-0.7c-0.4,0-0.6,0.3-0.6,0.9v26.3c0,0.7-0.6,1.3-1.4,1.3c-0.8,0-1.4-0.6-1.4-1.3V107c0-1.9,1.5-3.4,3.5-3.4
			c1.4,0,2.6,0.8,3.2,2l11.8,25.8c0.2,0.5,0.5,0.8,0.9,0.7c0.4,0,0.6-0.3,0.6-0.9L111.4,104.9z"/>
	</g>
	<g>
		<path d="M27.5,163.2c-0.9,0-1.4-0.6-1.4-1.3s0.6-1.3,1.3-1.3h5.7c1.3,0,2.2,0.9,2.2,2.1v11.8c0,1.2-0.9,2.1-2.2,2.1H24
			c-6.7,0-10.6-4.3-10.6-10.5v-9.8c0-7.7,4-10.8,10.6-10.8h8.4c0.7,0,1.3,0.6,1.3,1.3s-0.6,1.3-1.3,1.3H24c-4.8,0-7.8,2.4-7.8,8.2
			v9.8c0,4.6,2.7,8,7.8,8h8.5v-10.9L27.5,163.2L27.5,163.2z"/>
		<path d="M55.8,145.5c4.6,0,8.2,3.8,8.2,8.1c0,4-3.1,7.3-6.9,7.8l-0.8,0.1l7,13.1c0.1,0.2,0.2,0.4,0.2,0.6c0,0.8-0.6,1.3-1.4,1.3
			c-0.6,0-1-0.4-1.2-0.8l-7.6-14h-6.8v13.5c0,0.7-0.6,1.3-1.4,1.3c-0.8,0-1.4-0.6-1.4-1.3v-27.7c0-1.2,0.9-2.1,2.1-2.1L55.8,145.5z
			 M55.8,159.3c3,0,5.6-2.5,5.6-5.6c0-3.1-2.5-5.6-5.6-5.6h-9.3v11.2H55.8z"/>
		<path d="M83.3,145.5c6.5,0,10.6,3,10.6,10.8v9.8c0,6.2-3.8,10.5-10.6,10.5h-2c-6.7,0-10.6-4.3-10.6-10.5v-9.8
			c0-7.8,4.1-10.8,10.6-10.8H83.3z M73.6,166.1c0,4.6,2.7,8,7.7,8h2c5,0,7.8-3.4,7.8-8v-9.8c0-5.9-3-8.2-7.8-8.2h-2
			c-4.8,0-7.7,2.4-7.7,8.2V166.1z"/>
		<path d="M102.1,146.8c0-0.6,0.6-1.3,1.4-1.3c0.7,0,1.3,0.6,1.3,1.3v20.6c0,4.3,2.7,6.7,5.6,6.7h5.4c3.2,0,5.2-2.7,5.2-6.7v-20.6
			c0-0.8,0.6-1.4,1.3-1.4c0.7,0,1.4,0.6,1.4,1.3v20.6c0,5.5-3,9.3-8,9.3h-5.4c-4.4,0-8.3-3.2-8.3-9.3V146.8z"/>
		<path d="M132.5,147.6c0-1.2,0.9-2.1,2.1-2.1h10c4.6,0,8.2,3.8,8.2,8.1c0,4.5-3.7,8.2-8.2,8.2h-9.3v13.4c0,0.8-0.6,1.4-1.4,1.4
			c-0.8,0-1.4-0.6-1.4-1.3V147.6z M144.7,159.3c3,0,5.6-2.5,5.6-5.6c0-3.1-2.5-5.6-5.6-5.6h-9.3v11.2H144.7z"/>
	</g>
	<g>
		<path d="M33.3,61.5c0.9,0,1.4,0.6,1.4,1.3c0,0.6-0.6,1.3-1.3,1.3h-8.6v27.3c0,0.7-0.7,1.3-1.4,1.3c-0.8,0-1.4-0.6-1.4-1.3V64.1
			h-8.7c-0.7,0-1.3-0.6-1.3-1.3c0-0.6,0.6-1.3,1.3-1.3H33.3z"/>
		<path d="M61.1,62.9c0-0.7,0.6-1.3,1.4-1.3c0.8,0,1.4,0.6,1.4,1.4v28.3c0,0.8-0.6,1.4-1.4,1.4c-0.8,0-1.4-0.6-1.4-1.3v-13H44.4
			v12.9c0,0.8-0.6,1.4-1.4,1.4c-0.8,0-1.4-0.6-1.4-1.3V62.8c0-0.8,0.6-1.3,1.4-1.3c0.8,0,1.4,0.6,1.4,1.4v12.8h16.7V62.9z"/>
		<path d="M73.2,63.6c0-1.2,0.9-2.1,2.2-2.1h15.1c1,0,1.5,0.6,1.5,1.3c0,0.7-0.5,1.3-1.4,1.3H76v11h12c0.9,0,1.5,0.6,1.5,1.3
			c0,0.8-0.6,1.3-1.4,1.3H76V90h14.5c0.9,0,1.5,0.6,1.5,1.3c0,0.7-0.5,1.3-1.4,1.3H75.4c-1.2,0-2.2-0.9-2.2-2.1L73.2,63.6L73.2,63.6
			z"/>
	</g>
	<g>
		<path d="M192.5,192.5H0V0h192.5L192.5,192.5L192.5,192.5z M2,190.5h188.5V2H2V190.5z"/>
	</g>
</g>
</svg>
